<?xml version="1.0" encoding="UTF-8"?>
<!DOCTYPE svg PUBLIC "-//W3C//DTD SVG 1.1//EN" "http://www.w3.org/Graphics/SVG/1.1/DTD/svg11.dtd">
<svg xmlns="http://www.w3.org/2000/svg" version="1.1" width="980px" height="980px" style="shape-rendering:geometricPrecision; text-rendering:geometricPrecision; image-rendering:optimizeQuality; fill-rule:evenodd; clip-rule:evenodd" xmlns:xlink="http://www.w3.org/1999/xlink">
<g><path style="opacity:1" fill="#8b0e0f" d="M 810.5,217.5 C 811.419,220.089 813.086,222.089 815.5,223.5C 824.258,236.019 833.258,248.352 842.5,260.5C 849.503,272.508 856.503,284.508 863.5,296.5C 865.858,304.838 869.524,312.505 874.5,319.5C 875.042,322.912 876.375,325.912 878.5,328.5C 878.402,330.553 879.069,332.22 880.5,333.5C 884.379,347.472 889.046,361.139 894.5,374.5C 894.126,378.647 895.126,382.314 897.5,385.5C 897.511,390.17 898.511,394.503 900.5,398.5C 900.989,405.457 902.322,412.124 904.5,418.5C 904.438,423.076 905.105,427.409 906.5,431.5C 906.76,437.172 907.093,442.839 907.5,448.5C 907.776,456.681 908.443,464.681 909.5,472.5C 909.5,478.167 909.5,483.833 909.5,489.5C 909.167,489.5 908.833,489.5 908.5,489.5C 902.5,489.5 896.5,489.5 890.5,489.5C 890.5,489.167 890.5,488.833 890.5,488.5C 892.167,488.5 893.833,488.5 895.5,488.5C 897.167,488.5 898.833,488.5 900.5,488.5C 902.167,488.5 903.833,488.5 905.5,488.5C 902.052,349.767 845.719,238.267 736.5,154C 625.329,76.3583 503.996,55.025 372.5,90C 241.077,132.119 149.911,217.286 99,345.5C 82.299,391.706 73.799,439.373 73.5,488.5C 75.1667,488.5 76.8333,488.5 78.5,488.5C 80.5,488.5 82.5,488.5 84.5,488.5C 85.8333,488.5 87.1667,488.5 88.5,488.5C 88.5,488.833 88.5,489.167 88.5,489.5C 82.5,489.5 76.5,489.5 70.5,489.5C 70.2348,473.453 70.9015,457.453 72.5,441.5C 73.9715,437.081 74.6382,432.414 74.5,427.5C 77.5047,411.485 80.5047,395.485 83.5,379.5C 88.3289,366.392 92.6622,353.058 96.5,339.5C 98.4032,336.47 99.7365,333.137 100.5,329.5C 101.931,328.22 102.598,326.553 102.5,324.5C 150.782,218.386 228.782,142.886 336.5,98C 351.586,92.2851 366.92,87.4517 382.5,83.5C 399.206,79.8263 415.872,76.1597 432.5,72.5C 583.166,57.7168 709.166,106.05 810.5,217.5 Z"/></g>
<g><path style="opacity:1" fill="#980e0e" d="M 900.5,488.5 C 897.152,356.648 844.819,249.148 743.5,166C 632.195,83.0743 509.195,59.4076 374.5,95C 255.148,132.352 168.648,207.518 115,320.5C 91.4005,373.996 79.2339,429.996 78.5,488.5C 76.8333,488.5 75.1667,488.5 73.5,488.5C 73.799,439.373 82.299,391.706 99,345.5C 149.911,217.286 241.077,132.119 372.5,90C 503.996,55.025 625.329,76.3583 736.5,154C 845.719,238.267 902.052,349.767 905.5,488.5C 903.833,488.5 902.167,488.5 900.5,488.5 Z"/></g>
<g><path style="opacity:0.882" fill="#280a04" d="M 432.5,72.5 C 415.872,76.1597 399.206,79.8263 382.5,83.5C 382.5,83.1667 382.5,82.8333 382.5,82.5C 398.722,77.5223 415.388,74.189 432.5,72.5 Z"/></g>
<g><path style="opacity:1" fill="#9f0d0e" d="M 900.5,488.5 C 898.833,488.5 897.167,488.5 895.5,488.5C 892.358,358.728 841.025,252.895 741.5,171C 700.932,139.546 655.932,116.213 606.5,101C 604.167,100.333 601.833,100.333 599.5,101C 600.737,101.232 601.737,101.732 602.5,102.5C 571.58,94.1799 540.246,88.8465 508.5,86.5C 512.846,86.6657 517.179,86.499 521.5,86C 391.347,77.9314 281.18,120.765 191,214.5C 121.357,292.187 85.8572,383.52 84.5,488.5C 82.5,488.5 80.5,488.5 78.5,488.5C 79.2339,429.996 91.4005,373.996 115,320.5C 168.648,207.518 255.148,132.352 374.5,95C 509.195,59.4076 632.195,83.0743 743.5,166C 844.819,249.148 897.152,356.648 900.5,488.5 Z"/></g>
<g><path style="opacity:0.392" fill="#1b0402" d="M 810.5,217.5 C 709.166,106.05 583.166,57.7168 432.5,72.5C 579.28,55.8325 703.113,101.166 804,208.5C 806.41,211.397 808.577,214.397 810.5,217.5 Z"/></g>
<g><path style="opacity:1" fill="#d57f7f" d="M 508.5,86.5 C 540.246,88.8465 571.58,94.1799 602.5,102.5C 613.738,106.246 624.738,110.579 635.5,115.5C 630.172,116.819 624.839,116.319 619.5,114C 593.784,113.666 568.117,112.833 542.5,111.5C 530.417,110.388 518.417,108.888 506.5,107C 495.5,106.333 484.5,106.333 473.5,107C 461.256,108.947 448.923,110.447 436.5,111.5C 410.875,112.833 385.208,113.666 359.5,114C 353.972,115.82 348.306,116.987 342.5,117.5C 341.537,117.03 341.537,116.363 342.5,115.5C 395.519,93.2083 450.853,83.5416 508.5,86.5 Z"/></g>
<g><path style="opacity:1" fill="#a50e0d" d="M 508.5,86.5 C 450.853,83.5416 395.519,93.2083 342.5,115.5C 329.891,120.803 317.891,127.136 306.5,134.5C 301.833,137.167 297.167,139.833 292.5,142.5C 292.44,141.957 292.107,141.624 291.5,141.5C 197.575,196.286 135.075,275.953 104,380.5C 94.2137,415.837 89.047,451.837 88.5,488.5C 87.1667,488.5 85.8333,488.5 84.5,488.5C 85.8572,383.52 121.357,292.187 191,214.5C 281.18,120.765 391.347,77.9314 521.5,86C 517.179,86.499 512.846,86.6657 508.5,86.5 Z"/></g>
<g><path style="opacity:1" fill="#a60e0e" d="M 895.5,488.5 C 893.833,488.5 892.167,488.5 890.5,488.5C 888.369,376.454 848.035,280.954 769.5,202C 745.653,179.418 719.653,159.751 691.5,143C 690.002,142.415 689.002,142.915 688.5,144.5C 683.415,140.744 678.082,137.411 672.5,134.5C 660.926,126.879 648.593,120.545 635.5,115.5C 624.738,110.579 613.738,106.246 602.5,102.5C 601.737,101.732 600.737,101.232 599.5,101C 601.833,100.333 604.167,100.333 606.5,101C 655.932,116.213 700.932,139.546 741.5,171C 841.025,252.895 892.358,358.728 895.5,488.5 Z"/></g>
<g><path style="opacity:1" fill="#d67979" d="M 436.5,111.5 C 424.563,113.645 412.563,116.145 400.5,119C 400.833,119.333 401.167,119.667 401.5,120C 387.756,123.262 374.423,127.429 361.5,132.5C 361.167,132.5 360.833,132.5 360.5,132.5C 348.829,132.333 337.162,132.5 325.5,133C 319.178,135.525 312.845,136.025 306.5,134.5C 317.891,127.136 329.891,120.803 342.5,115.5C 341.537,116.363 341.537,117.03 342.5,117.5C 348.306,116.987 353.972,115.82 359.5,114C 385.208,113.666 410.875,112.833 436.5,111.5 Z"/></g>
<g><path style="opacity:1" fill="#dd7979" d="M 542.5,111.5 C 553.426,113.318 564.426,115.485 575.5,118C 589.581,122.846 603.581,127.68 617.5,132.5C 611.676,132.723 606.01,131.89 600.5,130C 585.662,130.317 570.996,128.984 556.5,126C 511.833,125.333 467.167,125.333 422.5,126C 408.349,129.007 394.016,130.34 379.5,130C 373.654,131.951 367.654,132.785 361.5,132.5C 374.423,127.429 387.756,123.262 401.5,120C 401.167,119.667 400.833,119.333 400.5,119C 412.563,116.145 424.563,113.645 436.5,111.5C 448.923,110.447 461.256,108.947 473.5,107C 484.5,106.333 495.5,106.333 506.5,107C 518.417,108.888 530.417,110.388 542.5,111.5 Z"/></g>
<g><path style="opacity:1" fill="#d67979" d="M 542.5,111.5 C 568.117,112.833 593.784,113.666 619.5,114C 624.839,116.319 630.172,116.819 635.5,115.5C 648.593,120.545 660.926,126.879 672.5,134.5C 665.679,135.655 658.679,135.821 651.5,135C 649.754,134.529 648.087,133.862 646.5,133C 637.506,132.5 628.506,132.334 619.5,132.5C 618.833,132.5 618.167,132.5 617.5,132.5C 603.581,127.68 589.581,122.846 575.5,118C 564.426,115.485 553.426,113.318 542.5,111.5 Z"/></g>
<g><path style="opacity:1" fill="#e07272" d="M 617.5,132.5 C 618.167,132.5 618.833,132.5 619.5,132.5C 623.533,135.819 628.2,138.319 633.5,140C 633.167,140.333 632.833,140.667 632.5,141C 642.116,146.811 652.116,152.145 662.5,157C 665.023,158.36 667.023,160.193 668.5,162.5C 659.5,162.5 650.5,162.5 641.5,162.5C 640.5,162.5 639.5,162.5 638.5,162.5C 636.618,161.763 635.952,160.596 636.5,159C 626.382,155.416 616.715,151.083 607.5,146C 601.093,145.56 594.926,145.727 589,146.5C 584.894,145.578 580.727,144.744 576.5,144C 547.483,143.625 518.483,142.791 489.5,141.5C 460.517,142.791 431.517,143.625 402.5,144C 398.273,144.744 394.106,145.578 390,146.5C 384.023,145.72 377.856,145.553 371.5,146C 362.249,151.123 352.583,155.456 342.5,159C 343.048,160.596 342.382,161.763 340.5,162.5C 339.833,162.5 339.167,162.5 338.5,162.5C 329.167,162.5 319.833,162.5 310.5,162.5C 311.977,160.193 313.977,158.36 316.5,157C 323.409,153.378 330.409,150.044 337.5,147C 340.166,143.996 343.499,141.996 347.5,141C 347.167,140.667 346.833,140.333 346.5,140C 352.093,138.011 356.76,135.511 360.5,132.5C 360.833,132.5 361.167,132.5 361.5,132.5C 367.654,132.785 373.654,131.951 379.5,130C 394.016,130.34 408.349,129.007 422.5,126C 467.167,125.333 511.833,125.333 556.5,126C 570.996,128.984 585.662,130.317 600.5,130C 606.01,131.89 611.676,132.723 617.5,132.5 Z"/></g>
<g><path style="opacity:1" fill="#d47171" d="M 360.5,132.5 C 356.76,135.511 352.093,138.011 346.5,140C 346.833,140.333 347.167,140.667 347.5,141C 343.499,141.996 340.166,143.996 337.5,147C 330.409,150.044 323.409,153.378 316.5,157C 313.977,158.36 311.977,160.193 310.5,162.5C 300.357,164.7 290.023,165.867 279.5,166C 274.584,168.583 269.584,169.083 264.5,167.5C 266.962,164.536 269.629,161.703 272.5,159C 279.356,153.636 286.023,148.136 292.5,142.5C 297.167,139.833 301.833,137.167 306.5,134.5C 312.845,136.025 319.178,135.525 325.5,133C 337.162,132.5 348.829,132.333 360.5,132.5 Z"/></g>
<g><path style="opacity:1" fill="#e46d6d" d="M 638.5,162.5 C 622.281,160.673 605.947,160.006 589.5,160.5C 588.5,160.5 587.5,160.5 586.5,160.5C 575.1,157.105 563.6,153.772 552,150.5C 523.999,144.906 495.499,143.072 466.5,145C 460.373,145.098 454.373,145.931 448.5,147.5C 447.914,147.291 447.414,146.957 447,146.5C 428.75,150.981 410.583,155.648 392.5,160.5C 391.5,160.5 390.5,160.5 389.5,160.5C 373.078,160.028 356.745,160.695 340.5,162.5C 342.382,161.763 343.048,160.596 342.5,159C 352.583,155.456 362.249,151.123 371.5,146C 377.856,145.553 384.023,145.72 390,146.5C 394.106,145.578 398.273,144.744 402.5,144C 431.517,143.625 460.517,142.791 489.5,141.5C 518.483,142.791 547.483,143.625 576.5,144C 580.727,144.744 584.894,145.578 589,146.5C 594.926,145.727 601.093,145.56 607.5,146C 616.715,151.083 626.382,155.416 636.5,159C 635.952,160.596 636.618,161.763 638.5,162.5 Z"/></g>
<g><path style="opacity:1" fill="#e86c6c" d="M 586.5,160.5 C 570.741,161.076 555.075,160.243 539.5,158C 506.5,157.333 473.5,157.333 440.5,158C 424.585,160.223 408.585,161.057 392.5,160.5C 410.583,155.648 428.75,150.981 447,146.5C 447.414,146.957 447.914,147.291 448.5,147.5C 454.373,145.931 460.373,145.098 466.5,145C 495.499,143.072 523.999,144.906 552,150.5C 563.6,153.772 575.1,157.105 586.5,160.5 Z"/></g>
<g><path style="opacity:1" fill="#d46f6f" d="M 619.5,132.5 C 628.506,132.334 637.506,132.5 646.5,133C 648.087,133.862 649.754,134.529 651.5,135C 658.679,135.821 665.679,135.655 672.5,134.5C 678.082,137.411 683.415,140.744 688.5,144.5C 699.385,151.713 709.051,160.38 717.5,170.5C 717.565,170.938 717.399,171.272 717,171.5C 716.167,170.667 715.333,169.833 714.5,169C 709.204,169.072 704.204,168.072 699.5,166C 688.953,165.866 678.619,164.7 668.5,162.5C 667.023,160.193 665.023,158.36 662.5,157C 652.116,152.145 642.116,146.811 632.5,141C 632.833,140.667 633.167,140.333 633.5,140C 628.2,138.319 623.533,135.819 619.5,132.5 Z"/></g>
<g><path style="opacity:1" fill="#ac0d0d" d="M 890.5,488.5 C 890.5,488.833 890.5,489.167 890.5,489.5C 883.833,489.5 877.167,489.5 870.5,489.5C 868.5,489.5 866.5,489.5 864.5,489.5C 864.5,489.167 864.5,488.833 864.5,488.5C 866.5,488.5 868.5,488.5 870.5,488.5C 872.833,488.5 875.167,488.5 877.5,488.5C 879.833,488.5 882.167,488.5 884.5,488.5C 881.326,363.33 831.992,260.83 736.5,181C 731.167,177 725.833,173 720.5,169C 719.184,168.472 718.517,168.972 718.5,170.5C 718.167,170.5 717.833,170.5 717.5,170.5C 709.051,160.38 699.385,151.713 688.5,144.5C 689.002,142.915 690.002,142.415 691.5,143C 719.653,159.751 745.653,179.418 769.5,202C 848.035,280.954 888.369,376.454 890.5,488.5 Z"/></g>
<g><path style="opacity:1" fill="#ac0c0c" d="M 292.5,142.5 C 286.023,148.136 279.356,153.636 272.5,159C 269.629,161.703 266.962,164.536 264.5,167.5C 264.167,167.5 263.833,167.5 263.5,167.5C 263.44,166.957 263.107,166.624 262.5,166.5C 185.092,222.139 133.592,296.139 108,388.5C 99.4352,421.287 94.9352,454.62 94.5,488.5C 92.5,488.5 90.5,488.5 88.5,488.5C 89.047,451.837 94.2137,415.837 104,380.5C 135.075,275.953 197.575,196.286 291.5,141.5C 292.107,141.624 292.44,141.957 292.5,142.5 Z"/></g>
<g><path style="opacity:1" fill="#ea6767" d="M 586.5,160.5 C 587.5,160.5 588.5,160.5 589.5,160.5C 591.076,161.283 592.409,162.45 593.5,164C 602.514,166.558 611.18,169.891 619.5,174C 617.833,174.333 616.167,174.667 614.5,175C 618.061,176.232 621.394,177.732 624.5,179.5C 599.835,178.253 575.168,176.587 550.5,174.5C 530.666,171.506 510.5,169.506 490,168.5C 469.519,169.459 449.353,171.459 429.5,174.5C 404.851,176.562 380.184,178.229 355.5,179.5C 358.177,177.54 361.177,176.04 364.5,175C 362.833,174.667 361.167,174.333 359.5,174C 367.82,169.891 376.486,166.558 385.5,164C 386.833,163.333 386.833,162.667 385.5,162C 387.058,161.79 388.391,161.29 389.5,160.5C 390.5,160.5 391.5,160.5 392.5,160.5C 408.585,161.057 424.585,160.223 440.5,158C 473.5,157.333 506.5,157.333 539.5,158C 555.075,160.243 570.741,161.076 586.5,160.5 Z"/></g>
<g><path style="opacity:1" fill="#e46767" d="M 389.5,160.5 C 388.391,161.29 387.058,161.79 385.5,162C 386.833,162.667 386.833,163.333 385.5,164C 376.486,166.558 367.82,169.891 359.5,174C 361.167,174.333 362.833,174.667 364.5,175C 361.177,176.04 358.177,177.54 355.5,179.5C 341.833,179.5 328.167,179.5 314.5,179.5C 315.611,178.34 316.611,177.007 317.5,175.5C 325.586,171.691 332.586,167.357 338.5,162.5C 339.167,162.5 339.833,162.5 340.5,162.5C 356.745,160.695 373.078,160.028 389.5,160.5 Z"/></g>
<g><path style="opacity:1" fill="#e46767" d="M 589.5,160.5 C 605.947,160.006 622.281,160.673 638.5,162.5C 639.5,162.5 640.5,162.5 641.5,162.5C 644.611,164.559 647.944,166.392 651.5,168C 650.167,168.667 650.167,169.333 651.5,170C 657.137,171.967 661.804,175.133 665.5,179.5C 651.833,179.5 638.167,179.5 624.5,179.5C 621.394,177.732 618.061,176.232 614.5,175C 616.167,174.667 617.833,174.333 619.5,174C 611.18,169.891 602.514,166.558 593.5,164C 592.409,162.45 591.076,161.283 589.5,160.5 Z"/></g>
<g><path style="opacity:1" fill="#d96565" d="M 310.5,162.5 C 319.833,162.5 329.167,162.5 338.5,162.5C 332.586,167.357 325.586,171.691 317.5,175.5C 316.611,177.007 315.611,178.34 314.5,179.5C 314.167,179.5 313.833,179.5 313.5,179.5C 310.903,179.643 308.569,180.477 306.5,182C 299.833,182.333 293.167,182.667 286.5,183C 278.607,187.56 271.273,192.893 264.5,199C 261.475,199.133 258.808,200.133 256.5,202C 251.497,201.868 246.83,202.868 242.5,205C 240.288,205.789 238.288,205.622 236.5,204.5C 238.5,200.5 240.5,196.5 242.5,192.5C 249.094,183.899 256.094,175.565 263.5,167.5C 263.833,167.5 264.167,167.5 264.5,167.5C 269.584,169.083 274.584,168.583 279.5,166C 290.023,165.867 300.357,164.7 310.5,162.5 Z"/></g>
<g><path style="opacity:1" fill="#b20c0c" d="M 263.5,167.5 C 256.094,175.565 249.094,183.899 242.5,192.5C 242.565,192.062 242.399,191.728 242,191.5C 151.439,269.311 104.939,368.311 102.5,488.5C 104.5,488.5 106.5,488.5 108.5,488.5C 110.833,488.5 113.167,488.5 115.5,488.5C 117.5,488.5 119.5,488.5 121.5,488.5C 125.5,488.5 129.5,488.5 133.5,488.5C 133.5,488.833 133.5,489.167 133.5,489.5C 118.5,489.5 103.5,489.5 88.5,489.5C 88.5,489.167 88.5,488.833 88.5,488.5C 90.5,488.5 92.5,488.5 94.5,488.5C 94.9352,454.62 99.4352,421.287 108,388.5C 133.592,296.139 185.092,222.139 262.5,166.5C 263.107,166.624 263.44,166.957 263.5,167.5 Z"/></g>
<g><path style="opacity:1" fill="#b20b0b" d="M 877.5,488.5 C 874.587,368.862 828.254,270.029 738.5,192C 737.563,191.308 736.897,191.475 736.5,192.5C 730.908,184.901 724.908,177.567 718.5,170.5C 718.517,168.972 719.184,168.472 720.5,169C 725.833,173 731.167,177 736.5,181C 831.992,260.83 881.326,363.33 884.5,488.5C 882.167,488.5 879.833,488.5 877.5,488.5 Z"/></g>
<g><path style="opacity:1" fill="#ef6061" d="M 550.5,174.5 C 556.342,176.095 562.342,177.595 568.5,179C 567.366,180.016 567.699,180.683 569.5,181C 582.321,184.095 594.654,188.262 606.5,193.5C 591.83,193.667 577.163,193.5 562.5,193C 559.247,191.964 555.914,191.297 552.5,191C 510.833,190.333 469.167,190.333 427.5,191C 409.277,193.332 390.943,194.165 372.5,193.5C 385.424,188.136 398.757,183.636 412.5,180C 412.167,179.667 411.833,179.333 411.5,179C 417.644,177.544 423.644,176.044 429.5,174.5C 449.353,171.459 469.519,169.459 490,168.5C 510.5,169.506 530.666,171.506 550.5,174.5 Z"/></g>
<g><path style="opacity:1" fill="#e86060" d="M 429.5,174.5 C 423.644,176.044 417.644,177.544 411.5,179C 411.833,179.333 412.167,179.667 412.5,180C 398.757,183.636 385.424,188.136 372.5,193.5C 359.496,193.333 346.496,193.5 333.5,194C 329.959,195.44 326.292,196.274 322.5,196.5C 311.167,197.5 299.833,198.5 288.5,199.5C 290.893,194.954 294.559,191.788 299.5,190C 300.071,188.795 300.738,187.628 301.5,186.5C 305.563,184.14 309.563,181.807 313.5,179.5C 313.833,179.5 314.167,179.5 314.5,179.5C 328.167,179.5 341.833,179.5 355.5,179.5C 380.184,178.229 404.851,176.562 429.5,174.5 Z"/></g>
<g><path style="opacity:1" fill="#e86060" d="M 550.5,174.5 C 575.168,176.587 599.835,178.253 624.5,179.5C 638.167,179.5 651.833,179.5 665.5,179.5C 665.833,179.5 666.167,179.5 666.5,179.5C 670.268,182.225 674.268,184.725 678.5,187C 681.041,190.564 684.708,193.564 689.5,196C 689.167,196.333 688.833,196.667 688.5,197C 689.571,197.852 690.571,198.685 691.5,199.5C 679.882,198.2 668.215,197.2 656.5,196.5C 652.951,196.561 649.618,195.727 646.5,194C 633.171,193.5 619.837,193.333 606.5,193.5C 594.654,188.262 582.321,184.095 569.5,181C 567.699,180.683 567.366,180.016 568.5,179C 562.342,177.595 556.342,176.095 550.5,174.5 Z"/></g>
<g><path style="opacity:1" fill="#d76363" d="M 641.5,162.5 C 650.5,162.5 659.5,162.5 668.5,162.5C 678.619,164.7 688.953,165.866 699.5,166C 704.204,168.072 709.204,169.072 714.5,169C 715.333,169.833 716.167,170.667 717,171.5C 717.399,171.272 717.565,170.938 717.5,170.5C 717.833,170.5 718.167,170.5 718.5,170.5C 724.908,177.567 730.908,184.901 736.5,192.5C 738.5,196.167 740.5,199.833 742.5,203.5C 739.634,206.048 736.634,205.881 733.5,203C 729.833,202.667 726.167,202.333 722.5,202C 720.51,200.249 718.177,199.249 715.5,199C 708.521,193.177 701.188,187.844 693.5,183C 686.833,182.667 680.167,182.333 673.5,182C 671.35,180.589 669.016,179.755 666.5,179.5C 666.167,179.5 665.833,179.5 665.5,179.5C 661.804,175.133 657.137,171.967 651.5,170C 650.167,169.333 650.167,168.667 651.5,168C 647.944,166.392 644.611,164.559 641.5,162.5 Z"/></g>
<g><path style="opacity:1" fill="#ef5959" d="M 606.5,193.5 C 619.837,193.333 633.171,193.5 646.5,194C 649.618,195.727 652.951,196.561 656.5,196.5C 660.837,201.451 666.503,205.617 673.5,209C 680.081,215.36 687.414,221.526 695.5,227.5C 695.167,227.5 694.833,227.5 694.5,227.5C 683.5,227.5 672.5,227.5 661.5,227.5C 655.402,222.607 648.736,218.441 641.5,215C 640.833,213 639.5,211.667 637.5,211C 629.167,210.667 620.833,210.333 612.5,210C 610.913,209.138 609.246,208.471 607.5,208C 568.139,207.784 528.806,206.951 489.5,205.5C 450.53,206.96 411.53,207.793 372.5,208C 370.392,208.36 368.392,209.027 366.5,210C 358.167,210.333 349.833,210.667 341.5,211C 339.321,211.442 338.655,212.442 339.5,214C 331.936,218.274 324.602,222.774 317.5,227.5C 306.5,227.5 295.5,227.5 284.5,227.5C 289.22,222.629 294.554,218.462 300.5,215C 300.833,214 301.167,213 301.5,212C 307.236,207.936 313.236,204.27 319.5,201C 320.833,200.333 320.833,199.667 319.5,199C 320.942,198.623 321.942,197.79 322.5,196.5C 326.292,196.274 329.959,195.44 333.5,194C 346.496,193.5 359.496,193.333 372.5,193.5C 390.943,194.165 409.277,193.332 427.5,191C 469.167,190.333 510.833,190.333 552.5,191C 555.914,191.297 559.247,191.964 562.5,193C 577.163,193.5 591.83,193.667 606.5,193.5 Z"/></g>
<g><path style="opacity:1" fill="#b80a0a" d="M 242.5,192.5 C 240.5,196.5 238.5,200.5 236.5,204.5C 235.167,206.5 233.833,208.5 232.5,210.5C 232.103,209.475 231.437,209.308 230.5,210C 151.809,285.82 111.142,378.653 108.5,488.5C 106.5,488.5 104.5,488.5 102.5,488.5C 104.939,368.311 151.439,269.311 242,191.5C 242.399,191.728 242.565,192.062 242.5,192.5 Z"/></g>
<g><path style="opacity:1" fill="#b80a0a" d="M 877.5,488.5 C 875.167,488.5 872.833,488.5 870.5,488.5C 868.281,377.572 827.114,284.239 747,208.5C 746.601,208.728 746.435,209.062 746.5,209.5C 745.167,207.5 743.833,205.5 742.5,203.5C 740.5,199.833 738.5,196.167 736.5,192.5C 736.897,191.475 737.563,191.308 738.5,192C 828.254,270.029 874.587,368.862 877.5,488.5 Z"/></g>
<g><path style="opacity:1" fill="#e25757" d="M 322.5,196.5 C 321.942,197.79 320.942,198.623 319.5,199C 320.833,199.667 320.833,200.333 319.5,201C 313.236,204.27 307.236,207.936 301.5,212C 301.167,213 300.833,214 300.5,215C 294.554,218.462 289.22,222.629 284.5,227.5C 277.14,229.807 269.474,230.973 261.5,231C 260.328,231.419 259.328,232.085 258.5,233C 249.653,233.135 240.987,233.968 232.5,235.5C 233.09,234.234 233.59,232.901 234,231.5C 238.964,226.3 244.131,221.467 249.5,217C 255.167,216.667 260.833,216.333 266.5,216C 273.446,209.874 280.779,204.374 288.5,199.5C 299.833,198.5 311.167,197.5 322.5,196.5 Z"/></g>
<g><path style="opacity:1" fill="#e15757" d="M 656.5,196.5 C 668.215,197.2 679.882,198.2 691.5,199.5C 698.833,204.509 705.833,210.009 712.5,216C 724.305,215.976 735.971,216.976 747.5,219C 748.822,221.168 749.489,221.001 749.5,218.5C 750.833,221.167 752.167,223.833 753.5,226.5C 754.092,229.127 754.425,231.794 754.5,234.5C 754.631,235.239 754.464,235.906 754,236.5C 743.434,234.283 732.601,233.116 721.5,233C 720.328,232.581 719.328,231.915 718.5,231C 713.833,230.667 709.167,230.333 704.5,230C 701.893,227.895 698.893,227.062 695.5,227.5C 687.414,221.526 680.081,215.36 673.5,209C 666.503,205.617 660.837,201.451 656.5,196.5 Z"/></g>
<g><path style="opacity:1" fill="#da5b5b" d="M 666.5,179.5 C 669.016,179.755 671.35,180.589 673.5,182C 680.167,182.333 686.833,182.667 693.5,183C 701.188,187.844 708.521,193.177 715.5,199C 718.177,199.249 720.51,200.249 722.5,202C 726.167,202.333 729.833,202.667 733.5,203C 736.634,205.881 739.634,206.048 742.5,203.5C 743.833,205.5 745.167,207.5 746.5,209.5C 747.698,212.426 748.698,215.426 749.5,218.5C 749.489,221.001 748.822,221.168 747.5,219C 735.971,216.976 724.305,215.976 712.5,216C 705.833,210.009 698.833,204.509 691.5,199.5C 690.571,198.685 689.571,197.852 688.5,197C 688.833,196.667 689.167,196.333 689.5,196C 684.708,193.564 681.041,190.564 678.5,187C 674.268,184.725 670.268,182.225 666.5,179.5 Z"/></g>
<g><path style="opacity:1" fill="#f35454" d="M 661.5,227.5 C 656.489,227.666 651.489,227.499 646.5,227C 645.167,226.333 643.833,225.667 642.5,225C 629.171,224.5 615.837,224.333 602.5,224.5C 599.059,224.699 595.726,224.199 592.5,223C 523.833,222.333 455.167,222.333 386.5,223C 383.649,224.289 380.649,224.789 377.5,224.5C 364.163,224.333 350.829,224.5 337.5,225C 336.167,225.667 334.833,226.333 333.5,227C 328.177,227.499 322.844,227.666 317.5,227.5C 324.602,222.774 331.936,218.274 339.5,214C 338.655,212.442 339.321,211.442 341.5,211C 349.833,210.667 358.167,210.333 366.5,210C 368.392,209.027 370.392,208.36 372.5,208C 411.53,207.793 450.53,206.96 489.5,205.5C 528.806,206.951 568.139,207.784 607.5,208C 609.246,208.471 610.913,209.138 612.5,210C 620.833,210.333 629.167,210.667 637.5,211C 639.5,211.667 640.833,213 641.5,215C 648.736,218.441 655.402,222.607 661.5,227.5 Z"/></g>
<g><path style="opacity:1" fill="#be0909" d="M 870.5,488.5 C 868.5,488.5 866.5,488.5 864.5,488.5C 862.442,385.797 825.609,297.797 754,224.5C 753.536,225.094 753.369,225.761 753.5,226.5C 752.167,223.833 750.833,221.167 749.5,218.5C 748.698,215.426 747.698,212.426 746.5,209.5C 746.435,209.062 746.601,208.728 747,208.5C 827.114,284.239 868.281,377.572 870.5,488.5 Z"/></g>
<g><path style="opacity:1" fill="#be0909" d="M 232.5,210.5 C 230.676,215.325 228.676,219.992 226.5,224.5C 175.594,273.886 141.76,333.886 125,404.5C 118.577,432.138 115.411,460.138 115.5,488.5C 113.167,488.5 110.833,488.5 108.5,488.5C 111.142,378.653 151.809,285.82 230.5,210C 231.437,209.308 232.103,209.475 232.5,210.5 Z"/></g>
<g><path style="opacity:1" fill="#d95858" d="M 313.5,179.5 C 309.563,181.807 305.563,184.14 301.5,186.5C 300.738,187.628 300.071,188.795 299.5,190C 294.559,191.788 290.893,194.954 288.5,199.5C 280.779,204.374 273.446,209.874 266.5,216C 260.833,216.333 255.167,216.667 249.5,217C 244.131,221.467 238.964,226.3 234,231.5C 233.59,232.901 233.09,234.234 232.5,235.5C 229.606,235.042 227.106,235.709 225,237.5C 224.536,236.906 224.369,236.239 224.5,235.5C 224.751,231.751 225.417,228.085 226.5,224.5C 228.676,219.992 230.676,215.325 232.5,210.5C 233.833,208.5 235.167,206.5 236.5,204.5C 238.288,205.622 240.288,205.789 242.5,205C 246.83,202.868 251.497,201.868 256.5,202C 258.808,200.133 261.475,199.133 264.5,199C 271.273,192.893 278.607,187.56 286.5,183C 293.167,182.667 299.833,182.333 306.5,182C 308.569,180.477 310.903,179.643 313.5,179.5 Z"/></g>
<g><path style="opacity:0.42" fill="#120101" d="M 810.5,217.5 C 812.914,218.911 814.581,220.911 815.5,223.5C 813.086,222.089 811.419,220.089 810.5,217.5 Z"/></g>
<g><path style="opacity:1" fill="#f64d4d" d="M 602.5,224.5 C 614.614,230.056 626.281,236.39 637.5,243.5C 635.692,243.509 634.025,243.009 632.5,242C 537.5,241.333 442.5,241.333 347.5,242C 345.655,243.128 343.655,243.628 341.5,243.5C 353.215,236.642 365.215,230.309 377.5,224.5C 380.649,224.789 383.649,224.289 386.5,223C 455.167,222.333 523.833,222.333 592.5,223C 595.726,224.199 599.059,224.699 602.5,224.5 Z"/></g>
<g><path style="opacity:1" fill="#c40808" d="M 226.5,224.5 C 225.417,228.085 224.751,231.751 224.5,235.5C 223.388,237.599 222.721,239.933 222.5,242.5C 222.167,242.5 221.833,242.5 221.5,242.5C 221.631,241.761 221.464,241.094 221,240.5C 157.866,309.691 125.366,391.358 123.5,485.5C 123.058,486.739 122.391,487.739 121.5,488.5C 119.5,488.5 117.5,488.5 115.5,488.5C 115.411,460.138 118.577,432.138 125,404.5C 141.76,333.886 175.594,273.886 226.5,224.5 Z"/></g>
<g><path style="opacity:1" fill="#ee4e4e" d="M 377.5,224.5 C 365.215,230.309 353.215,236.642 341.5,243.5C 341.167,243.5 340.833,243.5 340.5,243.5C 330.161,243.334 319.828,243.5 309.5,244C 304.937,246.866 299.937,248.033 294.5,247.5C 284.121,247.867 273.788,248.534 263.5,249.5C 265.668,246.5 268.334,244 271.5,242C 270.833,241.667 270.167,241.333 269.5,241C 274.741,236.584 279.741,232.084 284.5,227.5C 295.5,227.5 306.5,227.5 317.5,227.5C 322.844,227.666 328.177,227.499 333.5,227C 334.833,226.333 336.167,225.667 337.5,225C 350.829,224.5 364.163,224.333 377.5,224.5 Z"/></g>
<g><path style="opacity:1" fill="#ee4e4e" d="M 602.5,224.5 C 615.837,224.333 629.171,224.5 642.5,225C 643.833,225.667 645.167,226.333 646.5,227C 651.489,227.499 656.489,227.666 661.5,227.5C 672.5,227.5 683.5,227.5 694.5,227.5C 699.305,232.134 704.305,236.634 709.5,241C 709.167,241.333 708.833,241.667 708.5,242C 711.039,244.37 713.372,246.87 715.5,249.5C 705.212,248.534 694.879,247.867 684.5,247.5C 679.382,248.111 674.715,246.944 670.5,244C 660.172,243.5 649.839,243.334 639.5,243.5C 638.604,244.506 637.938,244.506 637.5,243.5C 626.281,236.39 614.614,230.056 602.5,224.5 Z"/></g>
<g><path style="opacity:1" fill="#c40909" d="M 864.5,488.5 C 864.5,488.833 864.5,489.167 864.5,489.5C 855.167,489.5 845.833,489.5 836.5,489.5C 836.5,489.167 836.5,488.833 836.5,488.5C 839.833,488.5 843.167,488.5 846.5,488.5C 849.833,488.5 853.167,488.5 856.5,488.5C 854.72,392.98 821.887,309.98 758,239.5C 757.517,240.448 757.351,241.448 757.5,242.5C 756.918,239.687 755.918,237.02 754.5,234.5C 754.425,231.794 754.092,229.127 753.5,226.5C 753.369,225.761 753.536,225.094 754,224.5C 825.609,297.797 862.442,385.797 864.5,488.5 Z"/></g>
<g><path style="opacity:1" fill="#e14d4d" d="M 284.5,227.5 C 279.741,232.084 274.741,236.584 269.5,241C 270.167,241.333 270.833,241.667 271.5,242C 268.334,244 265.668,246.5 263.5,249.5C 256.159,249.334 248.826,249.5 241.5,250C 236.161,255.006 231.161,260.339 226.5,266C 224.899,266.273 223.399,266.773 222,267.5C 221.481,259.154 221.648,250.821 222.5,242.5C 222.721,239.933 223.388,237.599 224.5,235.5C 224.369,236.239 224.536,236.906 225,237.5C 227.106,235.709 229.606,235.042 232.5,235.5C 240.987,233.968 249.653,233.135 258.5,233C 259.328,232.085 260.328,231.419 261.5,231C 269.474,230.973 277.14,229.807 284.5,227.5 Z"/></g>
<g><path style="opacity:1" fill="#e14c4c" d="M 694.5,227.5 C 694.833,227.5 695.167,227.5 695.5,227.5C 698.893,227.062 701.893,227.895 704.5,230C 709.167,230.333 713.833,230.667 718.5,231C 719.328,231.915 720.328,232.581 721.5,233C 732.601,233.116 743.434,234.283 754,236.5C 754.464,235.906 754.631,235.239 754.5,234.5C 755.918,237.02 756.918,239.687 757.5,242.5C 758.371,252.806 758.704,263.14 758.5,273.5C 758.5,273.833 758.5,274.167 758.5,274.5C 753.014,265.666 746.347,257.666 738.5,250.5C 730.89,249.533 723.223,249.2 715.5,249.5C 713.372,246.87 711.039,244.37 708.5,242C 708.833,241.667 709.167,241.333 709.5,241C 704.305,236.634 699.305,232.134 694.5,227.5 Z"/></g>
<g><path style="opacity:1" fill="#cb0808" d="M 846.5,488.5 C 845.097,401.425 816.597,324.758 761,258.5C 760.667,257.167 760.333,255.833 760,254.5C 759.501,260.491 759.334,266.491 759.5,272.5C 759.5,273.167 759.167,273.5 758.5,273.5C 758.704,263.14 758.371,252.806 757.5,242.5C 757.351,241.448 757.517,240.448 758,239.5C 821.887,309.98 854.72,392.98 856.5,488.5C 853.167,488.5 849.833,488.5 846.5,488.5 Z"/></g>
<g><path style="opacity:1" fill="#cb0708" d="M 221.5,242.5 C 220.683,251.809 220.35,261.143 220.5,270.5C 219.675,266.353 219.175,262.019 219,257.5C 162.787,323.944 134.287,400.944 133.5,488.5C 129.5,488.5 125.5,488.5 121.5,488.5C 122.391,487.739 123.058,486.739 123.5,485.5C 125.366,391.358 157.866,309.691 221,240.5C 221.464,241.094 221.631,241.761 221.5,242.5 Z"/></g>
<g><path style="opacity:0.29" fill="#140201" d="M 815.5,223.5 C 821.22,229.912 826.72,236.579 832,243.5C 835.752,249.069 839.252,254.736 842.5,260.5C 833.258,248.352 824.258,236.019 815.5,223.5 Z"/></g>
<g><path style="opacity:1" fill="#f74747" d="M 637.5,243.5 C 637.938,244.506 638.604,244.506 639.5,243.5C 641.255,244.962 642.588,246.795 643.5,249C 648.406,251.942 653.072,255.109 657.5,258.5C 545.833,258.5 434.167,258.5 322.5,258.5C 327.084,254.53 332.084,251.03 337.5,248C 337.043,247.586 336.709,247.086 336.5,246.5C 337.901,245.479 339.235,244.479 340.5,243.5C 340.833,243.5 341.167,243.5 341.5,243.5C 343.655,243.628 345.655,243.128 347.5,242C 442.5,241.333 537.5,241.333 632.5,242C 634.025,243.009 635.692,243.509 637.5,243.5 Z"/></g>
<g><path style="opacity:1" fill="#e74546" d="M 221.5,242.5 C 221.833,242.5 222.167,242.5 222.5,242.5C 221.648,250.821 221.481,259.154 222,267.5C 223.399,266.773 224.899,266.273 226.5,266C 231.161,260.339 236.161,255.006 241.5,250C 248.826,249.5 256.159,249.334 263.5,249.5C 273.788,248.534 284.121,247.867 294.5,247.5C 290.718,253.13 285.718,258.296 279.5,263C 273.833,263.333 268.167,263.667 262.5,264C 261.672,264.915 260.672,265.581 259.5,266C 256.5,266.333 253.5,266.667 250.5,267C 248.167,269.333 245.833,271.667 243.5,274C 244.451,274.718 244.617,275.551 244,276.5C 241.791,278.373 239.958,280.54 238.5,283C 232.925,282.997 227.592,283.831 222.5,285.5C 222.167,284.167 221.833,282.833 221.5,281.5C 221.058,277.846 220.724,274.179 220.5,270.5C 220.35,261.143 220.683,251.809 221.5,242.5 Z"/></g>
<g><path style="opacity:1" fill="#e74646" d="M 684.5,247.5 C 694.879,247.867 705.212,248.534 715.5,249.5C 723.223,249.2 730.89,249.533 738.5,250.5C 746.347,257.666 753.014,265.666 758.5,274.5C 758.471,278.64 757.804,282.64 756.5,286.5C 755.733,285.828 755.066,284.995 754.5,284C 750.167,283.667 745.833,283.333 741.5,283C 736.404,277.985 732.404,272.652 729.5,267C 724.824,267.11 720.491,266.11 716.5,264C 710.833,263.667 705.167,263.333 699.5,263C 693.282,258.296 688.282,253.13 684.5,247.5 Z"/></g>
<g><path style="opacity:1" fill="#d20607" d="M 220.5,270.5 C 220.724,274.179 221.058,277.846 221.5,281.5C 220.678,279.611 219.845,277.611 219,275.5C 170.978,337.715 145.811,408.381 143.5,487.5C 140.242,488.417 136.909,488.751 133.5,488.5C 134.287,400.944 162.787,323.944 219,257.5C 219.175,262.019 219.675,266.353 220.5,270.5 Z"/></g>
<g><path style="opacity:1" fill="#f94141" d="M 322.5,258.5 C 434.167,258.5 545.833,258.5 657.5,258.5C 665.759,264.128 673.426,270.461 680.5,277.5C 666.496,277.667 652.496,277.5 638.5,277C 637.377,275.956 636.044,275.29 634.5,275C 624.172,274.5 613.839,274.334 603.5,274.5C 527.5,274.5 451.5,274.5 375.5,274.5C 365.161,274.334 354.828,274.5 344.5,275C 343.328,275.419 342.328,276.085 341.5,277C 327.171,277.5 312.837,277.667 298.5,277.5C 305.9,270.436 313.9,264.102 322.5,258.5 Z"/></g>
<g><path style="opacity:1" fill="#d20607" d="M 846.5,488.5 C 843.167,488.5 839.833,488.5 836.5,488.5C 834.227,427.833 818.394,370.833 789,317.5C 779.612,302.015 769.779,287.015 759.5,272.5C 759.334,266.491 759.501,260.491 760,254.5C 760.333,255.833 760.667,257.167 761,258.5C 816.597,324.758 845.097,401.425 846.5,488.5 Z"/></g>
<g><path style="opacity:1" fill="#ee4141" d="M 340.5,243.5 C 339.235,244.479 337.901,245.479 336.5,246.5C 336.709,247.086 337.043,247.586 337.5,248C 332.084,251.03 327.084,254.53 322.5,258.5C 313.9,264.102 305.9,270.436 298.5,277.5C 288.828,277.334 279.161,277.5 269.5,278C 264.133,283.032 259.133,288.365 254.5,294C 251.692,294.019 249.359,295.019 247.5,297C 240.012,296.756 233.012,298.256 226.5,301.5C 224.962,296.887 223.629,292.22 222.5,287.5C 222.5,286.833 222.5,286.167 222.5,285.5C 227.592,283.831 232.925,282.997 238.5,283C 239.958,280.54 241.791,278.373 244,276.5C 244.617,275.551 244.451,274.718 243.5,274C 245.833,271.667 248.167,269.333 250.5,267C 253.5,266.667 256.5,266.333 259.5,266C 260.672,265.581 261.672,264.915 262.5,264C 268.167,263.667 273.833,263.333 279.5,263C 285.718,258.296 290.718,253.13 294.5,247.5C 299.937,248.033 304.937,246.866 309.5,244C 319.828,243.5 330.161,243.334 340.5,243.5 Z"/></g>
<g><path style="opacity:1" fill="#ee4141" d="M 639.5,243.5 C 649.839,243.334 660.172,243.5 670.5,244C 674.715,246.944 679.382,248.111 684.5,247.5C 688.282,253.13 693.282,258.296 699.5,263C 705.167,263.333 710.833,263.667 716.5,264C 720.491,266.11 724.824,267.11 729.5,267C 732.404,272.652 736.404,277.985 741.5,283C 745.833,283.333 750.167,283.667 754.5,284C 755.066,284.995 755.733,285.828 756.5,286.5C 756.5,287.5 756.5,288.5 756.5,289.5C 755.297,293.11 754.297,296.777 753.5,300.5C 750.654,300.97 748.321,300.137 746.5,298C 741.5,297.667 736.5,297.333 731.5,297C 729.641,295.019 727.308,294.019 724.5,294C 719.811,288.313 714.811,282.979 709.5,278C 699.839,277.5 690.172,277.334 680.5,277.5C 673.426,270.461 665.759,264.128 657.5,258.5C 653.072,255.109 648.406,251.942 643.5,249C 642.588,246.795 641.255,244.962 639.5,243.5 Z"/></g>
<g><path style="opacity:0.396" fill="#140201" d="M 382.5,82.5 C 382.5,82.8333 382.5,83.1667 382.5,83.5C 366.92,87.4517 351.586,92.2851 336.5,98C 228.782,142.886 150.782,218.386 102.5,324.5C 140.941,235.821 202.274,167.655 286.5,120C 316.894,103.3 348.894,90.7997 382.5,82.5 Z"/></g>
<g><path style="opacity:1" fill="#d80707" d="M 759.5,272.5 C 769.779,287.015 779.612,302.015 789,317.5C 818.394,370.833 834.227,427.833 836.5,488.5C 836.5,488.833 836.5,489.167 836.5,489.5C 825.5,489.5 814.5,489.5 803.5,489.5C 795.833,489.5 788.167,489.5 780.5,489.5C 780.5,489.167 780.5,488.833 780.5,488.5C 786.5,488.5 792.5,488.5 798.5,488.5C 804.167,488.5 809.833,488.5 815.5,488.5C 819.167,488.5 822.833,488.5 826.5,488.5C 825.75,413.425 802.917,346.092 758,286.5C 757.768,287.737 757.268,288.737 756.5,289.5C 756.5,288.5 756.5,287.5 756.5,286.5C 757.804,282.64 758.471,278.64 758.5,274.5C 758.5,274.167 758.5,273.833 758.5,273.5C 759.167,273.5 759.5,273.167 759.5,272.5 Z"/></g>
<g><path style="opacity:0.494" fill="#120101" d="M 842.5,260.5 C 851.011,271.507 858.011,283.507 863.5,296.5C 856.503,284.508 849.503,272.508 842.5,260.5 Z"/></g>
<g><path style="opacity:1" fill="#f3393a" d="M 375.5,274.5 C 366.492,279.669 357.825,285.336 349.5,291.5C 340.161,291.334 330.827,291.5 321.5,292C 320.672,292.915 319.672,293.581 318.5,294C 307.5,294.333 296.5,294.667 285.5,295C 279.424,300.405 274.091,306.405 269.5,313C 258.5,313.333 247.5,313.667 236.5,314C 235.051,315.102 233.718,316.269 232.5,317.5C 230.739,312.982 228.739,308.649 226.5,304.5C 226.5,303.5 226.5,302.5 226.5,301.5C 233.012,298.256 240.012,296.756 247.5,297C 249.359,295.019 251.692,294.019 254.5,294C 259.133,288.365 264.133,283.032 269.5,278C 279.161,277.5 288.828,277.334 298.5,277.5C 312.837,277.667 327.171,277.5 341.5,277C 342.328,276.085 343.328,275.419 344.5,275C 354.828,274.5 365.161,274.334 375.5,274.5 Z"/></g>
<g><path style="opacity:1" fill="#fb3b3b" d="M 375.5,274.5 C 451.5,274.5 527.5,274.5 603.5,274.5C 612.707,279.38 621.374,285.047 629.5,291.5C 597.832,291.667 566.165,291.5 534.5,291C 530.531,290.147 526.531,289.481 522.5,289C 500.833,288.333 479.167,288.333 457.5,289C 453.442,289.34 449.442,290.007 445.5,291C 413.502,291.5 381.502,291.667 349.5,291.5C 357.825,285.336 366.492,279.669 375.5,274.5 Z"/></g>
<g><path style="opacity:1" fill="#f3393a" d="M 603.5,274.5 C 613.839,274.334 624.172,274.5 634.5,275C 636.044,275.29 637.377,275.956 638.5,277C 652.496,277.5 666.496,277.667 680.5,277.5C 690.172,277.334 699.839,277.5 709.5,278C 714.811,282.979 719.811,288.313 724.5,294C 727.308,294.019 729.641,295.019 731.5,297C 736.5,297.333 741.5,297.667 746.5,298C 748.321,300.137 750.654,300.97 753.5,300.5C 753.5,300.833 753.5,301.167 753.5,301.5C 751.501,306.495 749.501,311.495 747.5,316.5C 745.804,316.315 744.471,315.481 743.5,314C 732.5,313.667 721.5,313.333 710.5,313C 705.167,307 699.833,301 694.5,295C 683.167,294.667 671.833,294.333 660.5,294C 659.672,293.085 658.672,292.419 657.5,292C 648.173,291.5 638.839,291.334 629.5,291.5C 621.374,285.047 612.707,279.38 603.5,274.5 Z"/></g>
<g><path style="opacity:1" fill="#d90707" d="M 221.5,281.5 C 221.833,282.833 222.167,284.167 222.5,285.5C 222.5,286.167 222.5,286.833 222.5,287.5C 221.883,287.389 221.383,287.056 221,286.5C 176.267,346.198 153.767,413.531 153.5,488.5C 157.167,488.5 160.833,488.5 164.5,488.5C 169.833,488.5 175.167,488.5 180.5,488.5C 186.833,488.5 193.167,488.5 199.5,488.5C 207.167,488.5 214.833,488.5 222.5,488.5C 222.5,488.833 222.5,489.167 222.5,489.5C 192.833,489.5 163.167,489.5 133.5,489.5C 133.5,489.167 133.5,488.833 133.5,488.5C 136.909,488.751 140.242,488.417 143.5,487.5C 145.811,408.381 170.978,337.715 219,275.5C 219.845,277.611 220.678,279.611 221.5,281.5 Z"/></g>
<g><path style="opacity:1" fill="#dd0505" d="M 222.5,287.5 C 223.629,292.22 224.962,296.887 226.5,301.5C 226.5,302.5 226.5,303.5 226.5,304.5C 225.842,303.602 225.176,302.602 224.5,301.5C 184.937,357.374 164.937,419.707 164.5,488.5C 160.833,488.5 157.167,488.5 153.5,488.5C 153.767,413.531 176.267,346.198 221,286.5C 221.383,287.056 221.883,287.389 222.5,287.5 Z"/></g>
<g><path style="opacity:1" fill="#dd0505" d="M 815.5,488.5 C 814.388,420.337 794.555,358.337 756,302.5C 755.329,301.748 754.496,301.414 753.5,301.5C 753.5,301.167 753.5,300.833 753.5,300.5C 754.297,296.777 755.297,293.11 756.5,289.5C 757.268,288.737 757.768,287.737 758,286.5C 802.917,346.092 825.75,413.425 826.5,488.5C 822.833,488.5 819.167,488.5 815.5,488.5 Z"/></g>
<g><path style="opacity:1" fill="#f93333" d="M 629.5,291.5 C 638.839,291.334 648.173,291.5 657.5,292C 658.672,292.419 659.672,293.085 660.5,294C 671.833,294.333 683.167,294.667 694.5,295C 699.833,301 705.167,307 710.5,313C 721.5,313.333 732.5,313.667 743.5,314C 744.471,315.481 745.804,316.315 747.5,316.5C 746.89,317.391 746.557,318.391 746.5,319.5C 743.849,324.131 741.182,328.798 738.5,333.5C 735.482,333.665 732.482,333.498 729.5,333C 728.833,332.333 728.167,331.667 727.5,331C 714.5,330.667 701.5,330.333 688.5,330C 687.672,329.085 686.672,328.419 685.5,328C 678.508,327.5 671.508,327.334 664.5,327.5C 664.167,327.5 663.833,327.5 663.5,327.5C 658.703,322.202 653.703,317.035 648.5,312C 628.5,311.667 608.5,311.333 588.5,311C 586.754,310.529 585.087,309.862 583.5,309C 521.167,308.333 458.833,308.333 396.5,309C 394.913,309.862 393.246,310.529 391.5,311C 371.5,311.333 351.5,311.667 331.5,312C 325.663,316.67 320.33,321.837 315.5,327.5C 315.167,327.5 314.833,327.5 314.5,327.5C 307.492,327.334 300.492,327.5 293.5,328C 292.833,328.667 292.167,329.333 291.5,330C 278.5,330.333 265.5,330.667 252.5,331C 251.833,331.667 251.167,332.333 250.5,333C 247.518,333.498 244.518,333.665 241.5,333.5C 238.57,329.301 235.903,324.968 233.5,320.5C 233.443,319.391 233.11,318.391 232.5,317.5C 233.718,316.269 235.051,315.102 236.5,314C 247.5,313.667 258.5,313.333 269.5,313C 274.091,306.405 279.424,300.405 285.5,295C 296.5,294.667 307.5,294.333 318.5,294C 319.672,293.581 320.672,292.915 321.5,292C 330.827,291.5 340.161,291.334 349.5,291.5C 381.502,291.667 413.502,291.5 445.5,291C 449.442,290.007 453.442,289.34 457.5,289C 479.167,288.333 500.833,288.333 522.5,289C 526.531,289.481 530.531,290.147 534.5,291C 566.165,291.5 597.832,291.667 629.5,291.5 Z"/></g>
<g><path style="opacity:1" fill="#e30404" d="M 226.5,304.5 C 228.739,308.649 230.739,312.982 232.5,317.5C 233.11,318.391 233.443,319.391 233.5,320.5C 232.603,319.402 231.77,319.402 231,320.5C 198.35,371.628 181.516,427.628 180.5,488.5C 175.167,488.5 169.833,488.5 164.5,488.5C 164.937,419.707 184.937,357.374 224.5,301.5C 225.176,302.602 225.842,303.602 226.5,304.5 Z"/></g>
<g><path style="opacity:1" fill="#e30404" d="M 753.5,301.5 C 754.496,301.414 755.329,301.748 756,302.5C 794.555,358.337 814.388,420.337 815.5,488.5C 809.833,488.5 804.167,488.5 798.5,488.5C 798.058,432.73 783.891,380.73 756,332.5C 753.301,327.744 750.134,323.411 746.5,319.5C 746.557,318.391 746.89,317.391 747.5,316.5C 749.501,311.495 751.501,306.495 753.5,301.5 Z"/></g>
<g><path style="opacity:1" fill="#fc2e2e" d="M 663.5,327.5 C 605.585,325.979 547.585,325.312 489.5,325.5C 431.356,325.312 373.356,325.979 315.5,327.5C 320.33,321.837 325.663,316.67 331.5,312C 351.5,311.667 371.5,311.333 391.5,311C 393.246,310.529 394.913,309.862 396.5,309C 458.833,308.333 521.167,308.333 583.5,309C 585.087,309.862 586.754,310.529 588.5,311C 608.5,311.333 628.5,311.667 648.5,312C 653.703,317.035 658.703,322.202 663.5,327.5 Z"/></g>
<g><path style="opacity:0.159" fill="#1f0602" d="M 863.5,296.5 C 867.954,303.743 871.621,311.41 874.5,319.5C 869.524,312.505 865.858,304.838 863.5,296.5 Z"/></g>
<g><path style="opacity:1" fill="#ea0303" d="M 233.5,320.5 C 235.903,324.968 238.57,329.301 241.5,333.5C 241.733,335.062 242.4,336.395 243.5,337.5C 242.504,337.414 241.671,337.748 241,338.5C 213.461,384.651 199.628,434.651 199.5,488.5C 193.167,488.5 186.833,488.5 180.5,488.5C 181.516,427.628 198.35,371.628 231,320.5C 231.77,319.402 232.603,319.402 233.5,320.5 Z"/></g>
<g><path style="opacity:1" fill="#ea0303" d="M 746.5,319.5 C 750.134,323.411 753.301,327.744 756,332.5C 783.891,380.73 798.058,432.73 798.5,488.5C 792.5,488.5 786.5,488.5 780.5,488.5C 780.167,433.519 765.5,382.852 736.5,336.5C 737.167,335.5 737.833,334.5 738.5,333.5C 741.182,328.798 743.849,324.131 746.5,319.5 Z"/></g>
<g><path style="opacity:1" fill="#fc2828" d="M 663.5,327.5 C 663.833,327.5 664.167,327.5 664.5,327.5C 668.833,332.833 673.167,338.167 677.5,343.5C 662.163,343.667 646.83,343.5 631.5,343C 630.328,342.581 629.328,341.915 628.5,341C 536.167,340.333 443.833,340.333 351.5,341C 350.328,341.419 349.328,342.085 348.5,343C 333.17,343.5 317.837,343.667 302.5,343.5C 306.091,337.902 310.091,332.569 314.5,327.5C 314.833,327.5 315.167,327.5 315.5,327.5C 373.356,325.979 431.356,325.312 489.5,325.5C 547.585,325.312 605.585,325.979 663.5,327.5 Z"/></g>
<g><path style="opacity:0.055" fill="#090000" d="M 874.5,319.5 C 876.625,322.088 877.958,325.088 878.5,328.5C 876.375,325.912 875.042,322.912 874.5,319.5 Z"/></g>
<g><path style="opacity:0.094" fill="#080000" d="M 102.5,324.5 C 102.598,326.553 101.931,328.22 100.5,329.5C 100.402,327.447 101.069,325.78 102.5,324.5 Z"/></g>
<g><path style="opacity:1" fill="#f52828" d="M 314.5,327.5 C 310.091,332.569 306.091,337.902 302.5,343.5C 295.492,343.334 288.492,343.5 281.5,344C 280.833,344.667 280.167,345.333 279.5,346C 271.5,346.333 263.5,346.667 255.5,347C 254.922,348.417 253.922,349.25 252.5,349.5C 249.5,345.5 246.5,341.5 243.5,337.5C 242.4,336.395 241.733,335.062 241.5,333.5C 244.518,333.665 247.518,333.498 250.5,333C 251.167,332.333 251.833,331.667 252.5,331C 265.5,330.667 278.5,330.333 291.5,330C 292.167,329.333 292.833,328.667 293.5,328C 300.492,327.5 307.492,327.334 314.5,327.5 Z"/></g>
<g><path style="opacity:1" fill="#f62828" d="M 664.5,327.5 C 671.508,327.334 678.508,327.5 685.5,328C 686.672,328.419 687.672,329.085 688.5,330C 701.5,330.333 714.5,330.667 727.5,331C 728.167,331.667 728.833,332.333 729.5,333C 732.482,333.498 735.482,333.665 738.5,333.5C 737.833,334.5 737.167,335.5 736.5,336.5C 734.183,340.146 731.516,343.48 728.5,346.5C 719.161,346.666 709.827,346.5 700.5,346C 699.833,345.333 699.167,344.667 698.5,344C 691.508,343.5 684.508,343.334 677.5,343.5C 673.167,338.167 668.833,332.833 664.5,327.5 Z"/></g>
<g><path style="opacity:0.073" fill="#060000" d="M 878.5,328.5 C 879.931,329.78 880.598,331.447 880.5,333.5C 879.069,332.22 878.402,330.553 878.5,328.5 Z"/></g>
<g><path style="opacity:0.047" fill="#0b0000" d="M 100.5,329.5 C 99.7365,333.137 98.4032,336.47 96.5,339.5C 96.8723,335.703 98.2057,332.37 100.5,329.5 Z"/></g>
<g><path style="opacity:1" fill="#f20807" d="M 736.5,336.5 C 765.5,382.852 780.167,433.519 780.5,488.5C 780.5,488.833 780.5,489.167 780.5,489.5C 594.5,489.5 408.5,489.5 222.5,489.5C 222.5,489.167 222.5,488.833 222.5,488.5C 234.5,488.5 246.5,488.5 258.5,488.5C 412.833,488.5 567.167,488.5 721.5,488.5C 733.5,488.5 745.5,488.5 757.5,488.5C 757.054,441.189 745.054,397.189 721.5,356.5C 723.859,353.149 726.192,349.815 728.5,346.5C 731.516,343.48 734.183,340.146 736.5,336.5 Z"/></g>
<g><path style="opacity:1" fill="#f00202" d="M 243.5,337.5 C 246.5,341.5 249.5,345.5 252.5,349.5C 254.5,351.833 256.5,354.167 258.5,356.5C 257.542,356.953 256.708,357.619 256,358.5C 233.874,399.002 222.708,442.336 222.5,488.5C 214.833,488.5 207.167,488.5 199.5,488.5C 199.628,434.651 213.461,384.651 241,338.5C 241.671,337.748 242.504,337.414 243.5,337.5 Z"/></g>
<g><path style="opacity:1" fill="#fc2222" d="M 677.5,343.5 C 684.508,343.334 691.508,343.5 698.5,344C 699.167,344.667 699.833,345.333 700.5,346C 709.827,346.5 719.161,346.666 728.5,346.5C 726.192,349.815 723.859,353.149 721.5,356.5C 719.5,358.167 717.5,359.833 715.5,361.5C 692.906,360.677 670.239,360.177 647.5,360C 646.328,359.581 645.328,358.915 644.5,358C 541.167,357.333 437.833,357.333 334.5,358C 333.833,358.667 333.167,359.333 332.5,360C 309.427,360.177 286.427,360.677 263.5,361.5C 261.5,360.167 259.833,358.5 258.5,356.5C 256.5,354.167 254.5,351.833 252.5,349.5C 253.922,349.25 254.922,348.417 255.5,347C 263.5,346.667 271.5,346.333 279.5,346C 280.167,345.333 280.833,344.667 281.5,344C 288.492,343.5 295.492,343.334 302.5,343.5C 317.837,343.667 333.17,343.5 348.5,343C 349.328,342.085 350.328,341.419 351.5,341C 443.833,340.333 536.167,340.333 628.5,341C 629.328,341.915 630.328,342.581 631.5,343C 646.83,343.5 662.163,343.667 677.5,343.5 Z"/></g>
<g><path style="opacity:1" fill="#f60101" d="M 258.5,356.5 C 259.833,358.5 261.5,360.167 263.5,361.5C 269.843,367.842 276.509,373.842 283.5,379.5C 283.833,380.167 284.167,380.833 284.5,381.5C 267.199,415.037 258.533,450.704 258.5,488.5C 246.5,488.5 234.5,488.5 222.5,488.5C 222.708,442.336 233.874,399.002 256,358.5C 256.708,357.619 257.542,356.953 258.5,356.5 Z"/></g>
<g><path style="opacity:1" fill="#f60101" d="M 721.5,356.5 C 745.054,397.189 757.054,441.189 757.5,488.5C 745.5,488.5 733.5,488.5 721.5,488.5C 720.886,450.668 711.886,415.002 694.5,381.5C 694.833,380.833 695.167,380.167 695.5,379.5C 703.087,374.582 709.754,368.582 715.5,361.5C 717.5,359.833 719.5,358.167 721.5,356.5 Z"/></g>
<g><path style="opacity:0.914" fill="#220703" d="M 880.5,333.5 C 886.336,346.674 891.003,360.341 894.5,374.5C 889.046,361.139 884.379,347.472 880.5,333.5 Z"/></g>
<g><path style="opacity:1" fill="#fd1c1c" d="M 715.5,361.5 C 709.754,368.582 703.087,374.582 695.5,379.5C 683.829,379.667 672.162,379.5 660.5,379C 659.833,378.333 659.167,377.667 658.5,377C 545.833,376.333 433.167,376.333 320.5,377C 320.043,377.414 319.709,377.914 319.5,378.5C 307.518,379.499 295.518,379.832 283.5,379.5C 276.509,373.842 269.843,367.842 263.5,361.5C 286.427,360.677 309.427,360.177 332.5,360C 333.167,359.333 333.833,358.667 334.5,358C 437.833,357.333 541.167,357.333 644.5,358C 645.328,358.915 646.328,359.581 647.5,360C 670.239,360.177 692.906,360.677 715.5,361.5 Z"/></g>
<g><path style="opacity:0.898" fill="#250903" d="M 96.5,339.5 C 92.6622,353.058 88.3289,366.392 83.5,379.5C 86.6174,365.67 90.9507,352.336 96.5,339.5 Z"/></g>
<g><path style="opacity:1" fill="#fd1515" d="M 695.5,379.5 C 695.167,380.167 694.833,380.833 694.5,381.5C 687.417,386.588 680.083,391.255 672.5,395.5C 670.897,395.688 669.563,395.188 668.5,394C 549.167,393.333 429.833,393.333 310.5,394C 309.874,394.75 309.374,395.584 309,396.5C 308.329,395.748 307.496,395.414 306.5,395.5C 298.917,391.255 291.583,386.588 284.5,381.5C 284.167,380.833 283.833,380.167 283.5,379.5C 295.518,379.832 307.518,379.499 319.5,378.5C 319.709,377.914 320.043,377.414 320.5,377C 433.167,376.333 545.833,376.333 658.5,377C 659.167,377.667 659.833,378.333 660.5,379C 672.162,379.5 683.829,379.667 695.5,379.5 Z"/></g>
<g><path style="opacity:1" fill="#fd0000" d="M 284.5,381.5 C 291.583,386.588 298.917,391.255 306.5,395.5C 314.521,401.18 323.188,405.847 332.5,409.5C 345.234,415.917 358.567,421.083 372.5,425C 450.5,425.667 528.5,425.667 606.5,425C 620.433,421.083 633.766,415.917 646.5,409.5C 655.812,405.847 664.479,401.18 672.5,395.5C 680.083,391.255 687.417,386.588 694.5,381.5C 711.886,415.002 720.886,450.668 721.5,488.5C 567.167,488.5 412.833,488.5 258.5,488.5C 258.533,450.704 267.199,415.037 284.5,381.5 Z"/></g>
<g><path style="opacity:0.761" fill="#1e0502" d="M 894.5,374.5 C 896.074,377.907 897.074,381.573 897.5,385.5C 895.126,382.314 894.126,378.647 894.5,374.5 Z"/></g>
<g><path style="opacity:0.097" fill="#100101" d="M 897.5,385.5 C 899.26,389.547 900.26,393.88 900.5,398.5C 898.511,394.503 897.511,390.17 897.5,385.5 Z"/></g>
<g><path style="opacity:1" fill="#fe0f0f" d="M 672.5,395.5 C 664.479,401.18 655.812,405.847 646.5,409.5C 541.833,409.5 437.167,409.5 332.5,409.5C 323.188,405.847 314.521,401.18 306.5,395.5C 307.496,395.414 308.329,395.748 309,396.5C 309.374,395.584 309.874,394.75 310.5,394C 429.833,393.333 549.167,393.333 668.5,394C 669.563,395.188 670.897,395.688 672.5,395.5 Z"/></g>
<g><path style="opacity:0.097" fill="#0d0101" d="M 900.5,398.5 C 902.708,404.873 904.041,411.54 904.5,418.5C 902.322,412.124 900.989,405.457 900.5,398.5 Z"/></g>
<g><path style="opacity:1" fill="#fe0909" d="M 332.5,409.5 C 437.167,409.5 541.833,409.5 646.5,409.5C 633.766,415.917 620.433,421.083 606.5,425C 528.5,425.667 450.5,425.667 372.5,425C 358.567,421.083 345.234,415.917 332.5,409.5 Z"/></g>
<g><path style="opacity:0.937" fill="#270a03" d="M 83.5,379.5 C 80.5047,395.485 77.5047,411.485 74.5,427.5C 73.8333,429.5 73.1667,431.5 72.5,433.5C 74.3956,415.02 78.0623,397.02 83.5,379.5 Z"/></g>
<g><path style="opacity:0.091" fill="#060000" d="M 904.5,418.5 C 905.895,422.591 906.562,426.924 906.5,431.5C 905.105,427.409 904.438,423.076 904.5,418.5 Z"/></g>
<g><path style="opacity:0.092" fill="#060000" d="M 906.5,431.5 C 907.884,436.944 908.55,442.611 908.5,448.5C 908.167,448.5 907.833,448.5 907.5,448.5C 907.093,442.839 906.76,437.172 906.5,431.5 Z"/></g>
<g><path style="opacity:0.976" fill="#58090a" d="M 74.5,427.5 C 74.6382,432.414 73.9715,437.081 72.5,441.5C 72.5,438.833 72.5,436.167 72.5,433.5C 73.1667,431.5 73.8333,429.5 74.5,427.5 Z"/></g>
<g><path style="opacity:0.871" fill="#300b05" d="M 72.5,433.5 C 72.5,436.167 72.5,438.833 72.5,441.5C 70.9015,457.453 70.2348,473.453 70.5,489.5C 69.508,482.018 69.1746,474.352 69.5,466.5C 69.5244,455.268 70.5244,444.268 72.5,433.5 Z"/></g>
<g><path style="opacity:0.869" fill="#340a05" d="M 907.5,448.5 C 907.833,448.5 908.167,448.5 908.5,448.5C 909.436,452.735 909.769,457.069 909.5,461.5C 909.5,465.167 909.5,468.833 909.5,472.5C 908.443,464.681 907.776,456.681 907.5,448.5 Z"/></g>
<g><path style="opacity:1" fill="#8c8a8b" d="M 70.5,489.5 C 76.5,489.5 82.5,489.5 88.5,489.5C 88.5,489.833 88.5,490.167 88.5,490.5C 87.1667,490.5 85.8333,490.5 84.5,490.5C 82.5,490.5 80.5,490.5 78.5,490.5C 76.8333,490.5 75.1667,490.5 73.5,490.5C 77.3006,626.598 131.967,736.765 237.5,821C 344.924,898.773 463.258,922.773 592.5,893C 705.072,862.184 791.072,797.018 850.5,697.5C 887.086,633.499 905.419,564.499 905.5,490.5C 906.791,490.737 907.791,490.404 908.5,489.5C 908.833,489.5 909.167,489.5 909.5,489.5C 906.06,629.217 849.393,741.717 739.5,827C 650.528,890.916 551.194,917.749 441.5,907.5C 424.586,904.624 407.586,901.624 390.5,898.5C 385.899,896.098 380.899,894.765 375.5,894.5C 373.562,892.837 371.228,892.171 368.5,892.5C 358.001,888.445 347.335,884.778 336.5,881.5C 335.22,880.069 333.553,879.402 331.5,879.5C 326.459,876.649 321.125,874.316 315.5,872.5C 182.981,807.132 102.815,701.798 75,556.5C 71.114,534.334 69.614,512 70.5,489.5 Z"/></g>
<g><path style="opacity:1" fill="#989797" d="M 870.5,489.5 C 877.167,489.5 883.833,489.5 890.5,489.5C 896.5,489.5 902.5,489.5 908.5,489.5C 907.791,490.404 906.791,490.737 905.5,490.5C 905.419,564.499 887.086,633.499 850.5,697.5C 791.072,797.018 705.072,862.184 592.5,893C 463.258,922.773 344.924,898.773 237.5,821C 131.967,736.765 77.3006,626.598 73.5,490.5C 75.1667,490.5 76.8333,490.5 78.5,490.5C 83.473,639.999 147.806,755.832 271.5,838C 376.164,900.952 487.498,916.285 605.5,884C 727.86,845.304 815.36,767.471 868,650.5C 889.529,599.356 900.362,546.022 900.5,490.5C 898.5,490.5 896.5,490.5 894.5,490.5C 893.167,490.5 891.833,490.5 890.5,490.5C 888.5,490.5 886.5,490.5 884.5,490.5C 882.167,490.5 879.833,490.5 877.5,490.5C 875.5,490.5 873.5,490.5 871.5,490.5C 870.833,490.5 870.5,490.167 870.5,489.5 Z"/></g>
<g><path style="opacity:1" fill="#a09e9e" d="M 78.5,490.5 C 80.5,490.5 82.5,490.5 84.5,490.5C 88.3334,618.991 139.333,724.157 237.5,806C 347.293,888.825 468.96,912.825 602.5,878C 733.966,836.194 823.799,750.694 872,621.5C 886.412,579.029 893.912,535.362 894.5,490.5C 896.5,490.5 898.5,490.5 900.5,490.5C 900.362,546.022 889.529,599.356 868,650.5C 815.36,767.471 727.86,845.304 605.5,884C 487.498,916.285 376.164,900.952 271.5,838C 147.806,755.832 83.473,639.999 78.5,490.5 Z"/></g>
<g><path style="opacity:1" fill="#a7a5a5" d="M 84.5,490.5 C 85.8333,490.5 87.1667,490.5 88.5,490.5C 93.8412,625.697 150.175,733.863 257.5,815C 366.374,888.956 484.374,907.289 611.5,870C 740.383,825.45 826.883,738.617 871,609.5C 882.699,570.64 889.199,530.974 890.5,490.5C 891.833,490.5 893.167,490.5 894.5,490.5C 893.912,535.362 886.412,579.029 872,621.5C 823.799,750.694 733.966,836.194 602.5,878C 468.96,912.825 347.293,888.825 237.5,806C 139.333,724.157 88.3334,618.991 84.5,490.5 Z"/></g>
<g><path style="opacity:1" fill="#acabab" d="M 88.5,490.5 C 90.5,490.5 92.5,490.5 94.5,490.5C 98.6864,617.033 149.353,720.2 246.5,800C 340.439,870.816 445.772,896.483 562.5,877C 677.355,852.869 765.855,791.369 828,692.5C 864.404,630.117 883.237,562.783 884.5,490.5C 886.5,490.5 888.5,490.5 890.5,490.5C 889.199,530.974 882.699,570.64 871,609.5C 826.883,738.617 740.383,825.45 611.5,870C 484.374,907.289 366.374,888.956 257.5,815C 150.175,733.863 93.8412,625.697 88.5,490.5 Z"/></g>
<g><path style="opacity:1" fill="#b2b1b1" d="M 94.5,490.5 C 96.8333,490.5 99.1667,490.5 101.5,490.5C 106.499,629.78 166.165,738.28 280.5,816C 378.037,876.03 482.371,891.697 593.5,863C 708.206,828.581 791.373,757.414 843,649.5C 865.4,598.895 876.9,545.895 877.5,490.5C 879.833,490.5 882.167,490.5 884.5,490.5C 883.237,562.783 864.404,630.117 828,692.5C 765.855,791.369 677.355,852.869 562.5,877C 445.772,896.483 340.439,870.816 246.5,800C 149.353,720.2 98.6864,617.033 94.5,490.5 Z"/></g>
<g><path style="opacity:1" fill="#b8b7b7" d="M 101.5,490.5 C 103.833,490.5 106.167,490.5 108.5,490.5C 110.989,602.618 152.989,696.785 234.5,773C 328.707,853.728 437.374,884.061 560.5,864C 692.234,835.577 785.734,760.077 841,637.5C 860.197,590.348 870.363,541.348 871.5,490.5C 873.5,490.5 875.5,490.5 877.5,490.5C 876.9,545.895 865.4,598.895 843,649.5C 791.373,757.414 708.206,828.581 593.5,863C 482.371,891.697 378.037,876.03 280.5,816C 166.165,738.28 106.499,629.78 101.5,490.5 Z"/></g>
<g><path style="opacity:1" fill="#bebdbd" d="M 803.5,490.5 C 803.5,490.167 803.5,489.833 803.5,489.5C 814.5,489.5 825.5,489.5 836.5,489.5C 845.833,489.5 855.167,489.5 864.5,489.5C 866.5,489.5 868.5,489.5 870.5,489.5C 870.5,490.167 870.833,490.5 871.5,490.5C 870.363,541.348 860.197,590.348 841,637.5C 785.734,760.077 692.234,835.577 560.5,864C 437.374,884.061 328.707,853.728 234.5,773C 152.989,696.785 110.989,602.618 108.5,490.5C 110.833,490.5 113.167,490.5 115.5,490.5C 118.965,619.283 172.299,721.449 275.5,797C 383.171,867.622 497.838,882.288 619.5,841C 733.43,795.737 809.596,714.904 848,598.5C 858.426,562.967 863.926,526.967 864.5,490.5C 862.167,490.5 859.833,490.5 857.5,490.5C 854.5,490.5 851.5,490.5 848.5,490.5C 844.5,490.5 840.5,490.5 836.5,490.5C 834.167,490.5 831.833,490.5 829.5,490.5C 825.833,490.5 822.167,490.5 818.5,490.5C 813.5,490.5 808.5,490.5 803.5,490.5 Z"/></g>
<g><path style="opacity:1" fill="#c5c4c4" d="M 115.5,490.5 C 117.833,490.5 120.167,490.5 122.5,490.5C 123.209,491.404 124.209,491.737 125.5,491.5C 127.4,599.113 167.733,689.28 246.5,762C 338.447,840.076 444.113,868.409 563.5,847C 671.779,822.333 753.613,762.166 809,666.5C 838.716,611.97 853.883,553.637 854.5,491.5C 855.791,491.737 856.791,491.404 857.5,490.5C 859.833,490.5 862.167,490.5 864.5,490.5C 863.926,526.967 858.426,562.967 848,598.5C 809.596,714.904 733.43,795.737 619.5,841C 497.838,882.288 383.171,867.622 275.5,797C 172.299,721.449 118.965,619.283 115.5,490.5 Z"/></g>
<g><path style="opacity:1" fill="#cccbcb" d="M 122.5,490.5 C 125.167,490.5 127.833,490.5 130.5,490.5C 131.568,491.434 132.901,491.768 134.5,491.5C 139.497,621.151 195.831,721.318 303.5,792C 391.192,843.946 484.526,857.279 583.5,832C 689.548,800.287 766.381,734.454 814,634.5C 834.202,588.992 844.368,541.325 844.5,491.5C 846.099,491.768 847.432,491.434 848.5,490.5C 851.5,490.5 854.5,490.5 857.5,490.5C 856.791,491.404 855.791,491.737 854.5,491.5C 853.883,553.637 838.716,611.97 809,666.5C 753.613,762.166 671.779,822.333 563.5,847C 444.113,868.409 338.447,840.076 246.5,762C 167.733,689.28 127.4,599.113 125.5,491.5C 124.209,491.737 123.209,491.404 122.5,490.5 Z"/></g>
<g><path style="opacity:1" fill="#d2d1d2" d="M 130.5,490.5 C 134.5,490.5 138.5,490.5 142.5,490.5C 146.878,600.085 190.878,689.919 274.5,760C 367.269,830.221 470.269,850.887 583.5,822C 687.279,790.215 761.779,725.049 807,626.5C 825.059,582.933 834.892,537.6 836.5,490.5C 840.5,490.5 844.5,490.5 848.5,490.5C 847.432,491.434 846.099,491.768 844.5,491.5C 844.368,541.325 834.202,588.992 814,634.5C 766.381,734.454 689.548,800.287 583.5,832C 484.526,857.279 391.192,843.946 303.5,792C 195.831,721.318 139.497,621.151 134.5,491.5C 132.901,491.768 131.568,491.434 130.5,490.5 Z"/></g>
<g><path style="opacity:1" fill="#d8d8d8" d="M 142.5,490.5 C 146.519,490.646 150.519,490.979 154.5,491.5C 159.219,616.159 213.885,711.659 318.5,778C 414.383,831.788 513.716,839.121 616.5,800C 708.364,760.801 771.531,694.301 806,600.5C 818.435,565.225 824.601,528.892 824.5,491.5C 826.415,491.784 828.081,491.451 829.5,490.5C 831.833,490.5 834.167,490.5 836.5,490.5C 834.892,537.6 825.059,582.933 807,626.5C 761.779,725.049 687.279,790.215 583.5,822C 470.269,850.887 367.269,830.221 274.5,760C 190.878,689.919 146.878,600.085 142.5,490.5 Z"/></g>
<g><path style="opacity:1" fill="#dfdddd" d="M 88.5,490.5 C 88.5,490.167 88.5,489.833 88.5,489.5C 103.5,489.5 118.5,489.5 133.5,489.5C 163.167,489.5 192.833,489.5 222.5,489.5C 408.5,489.5 594.5,489.5 780.5,489.5C 788.167,489.5 795.833,489.5 803.5,489.5C 803.5,489.833 803.5,490.167 803.5,490.5C 797.5,490.5 791.5,490.5 785.5,490.5C 778.5,490.5 771.5,490.5 764.5,490.5C 754.167,490.5 743.833,490.5 733.5,490.5C 571.167,490.5 408.833,490.5 246.5,490.5C 236.167,490.5 225.833,490.5 215.5,490.5C 208.167,490.5 200.833,490.5 193.5,490.5C 187.833,490.5 182.167,490.5 176.5,490.5C 170.394,490.077 166.394,490.41 164.5,491.5C 168.16,605.35 216.16,694.85 308.5,760C 402.689,819.716 502.356,830.716 607.5,793C 704.156,753.344 768.656,683.844 801,584.5C 810.073,554.156 814.906,523.156 815.5,491.5C 816.791,491.737 817.791,491.404 818.5,490.5C 822.167,490.5 825.833,490.5 829.5,490.5C 828.081,491.451 826.415,491.784 824.5,491.5C 824.601,528.892 818.435,565.225 806,600.5C 771.531,694.301 708.364,760.801 616.5,800C 513.716,839.121 414.383,831.788 318.5,778C 213.885,711.659 159.219,616.159 154.5,491.5C 150.519,490.979 146.519,490.646 142.5,490.5C 138.5,490.5 134.5,490.5 130.5,490.5C 127.833,490.5 125.167,490.5 122.5,490.5C 120.167,490.5 117.833,490.5 115.5,490.5C 113.167,490.5 110.833,490.5 108.5,490.5C 106.167,490.5 103.833,490.5 101.5,490.5C 99.1667,490.5 96.8333,490.5 94.5,490.5C 92.5,490.5 90.5,490.5 88.5,490.5 Z"/></g>
<g><path style="opacity:1" fill="#e3e3e3" d="M 176.5,490.5 C 177.568,491.434 178.901,491.768 180.5,491.5C 184.971,603.645 233.638,690.478 326.5,752C 413.702,803.32 505.036,811.987 600.5,778C 679.382,746.786 736.548,692.619 772,615.5C 789.371,576.012 798.205,534.678 798.5,491.5C 800.415,491.784 802.081,491.451 803.5,490.5C 808.5,490.5 813.5,490.5 818.5,490.5C 817.791,491.404 816.791,491.737 815.5,491.5C 814.906,523.156 810.073,554.156 801,584.5C 768.656,683.844 704.156,753.344 607.5,793C 502.356,830.716 402.689,819.716 308.5,760C 216.16,694.85 168.16,605.35 164.5,491.5C 166.394,490.41 170.394,490.077 176.5,490.5 Z"/></g>
<g><path style="opacity:1" fill="#eaeaea" d="M 176.5,490.5 C 182.167,490.5 187.833,490.5 193.5,490.5C 195.265,491.461 197.265,491.795 199.5,491.5C 201.582,584.156 238.248,659.656 309.5,718C 379.678,771.177 458.344,790.177 545.5,775C 643.378,753.18 713.544,697.013 756,606.5C 771.898,569.845 780.065,531.512 780.5,491.5C 782.415,491.784 784.081,491.451 785.5,490.5C 791.5,490.5 797.5,490.5 803.5,490.5C 802.081,491.451 800.415,491.784 798.5,491.5C 797.5,491.5 796.5,491.5 795.5,491.5C 791.203,602.303 743.203,688.136 651.5,749C 561.404,801.777 467.737,809.111 370.5,771C 277.473,728.96 217.973,658.46 192,559.5C 186.733,537.134 184.233,514.467 184.5,491.5C 183.167,491.5 181.833,491.5 180.5,491.5C 178.901,491.768 177.568,491.434 176.5,490.5 Z"/></g>
<g><path style="opacity:1" fill="#f0f0f0" d="M 193.5,490.5 C 200.833,490.5 208.167,490.5 215.5,490.5C 217.607,491.468 219.941,491.802 222.5,491.5C 225.468,587.968 266.801,662.801 346.5,716C 422.03,760.953 501.363,768.953 584.5,740C 673.764,703.064 729.598,637.564 752,543.5C 755.219,526.311 757.052,508.977 757.5,491.5C 760.059,491.802 762.393,491.468 764.5,490.5C 771.5,490.5 778.5,490.5 785.5,490.5C 784.081,491.451 782.415,491.784 780.5,491.5C 780.065,531.512 771.898,569.845 756,606.5C 713.544,697.013 643.378,753.18 545.5,775C 458.344,790.177 379.678,771.177 309.5,718C 238.248,659.656 201.582,584.156 199.5,491.5C 197.265,491.795 195.265,491.461 193.5,490.5 Z"/></g>
<g><path style="opacity:1" fill="#f6f6f6" d="M 215.5,490.5 C 225.833,490.5 236.167,490.5 246.5,490.5C 250.298,491.483 254.298,491.817 258.5,491.5C 262.534,582.457 303.867,650.29 382.5,695C 460.784,732.455 537.451,729.455 612.5,686C 681.604,639.941 717.938,575.108 721.5,491.5C 725.702,491.817 729.702,491.483 733.5,490.5C 743.833,490.5 754.167,490.5 764.5,490.5C 762.393,491.468 760.059,491.802 757.5,491.5C 757.052,508.977 755.219,526.311 752,543.5C 729.598,637.564 673.764,703.064 584.5,740C 501.363,768.953 422.03,760.953 346.5,716C 266.801,662.801 225.468,587.968 222.5,491.5C 219.941,491.802 217.607,491.468 215.5,490.5 Z"/></g>
<g><path style="opacity:1" fill="#fdfdfd" d="M 246.5,490.5 C 408.833,490.5 571.167,490.5 733.5,490.5C 729.702,491.483 725.702,491.817 721.5,491.5C 717.938,575.108 681.604,639.941 612.5,686C 537.451,729.455 460.784,732.455 382.5,695C 303.867,650.29 262.534,582.457 258.5,491.5C 254.298,491.817 250.298,491.483 246.5,490.5 Z"/></g>
<g><path style="opacity:1" fill="#e7e7e7" d="M 180.5,491.5 C 181.833,491.5 183.167,491.5 184.5,491.5C 184.233,514.467 186.733,537.134 192,559.5C 217.973,658.46 277.473,728.96 370.5,771C 467.737,809.111 561.404,801.777 651.5,749C 743.203,688.136 791.203,602.303 795.5,491.5C 796.5,491.5 797.5,491.5 798.5,491.5C 798.205,534.678 789.371,576.012 772,615.5C 736.548,692.619 679.382,746.786 600.5,778C 505.036,811.987 413.702,803.32 326.5,752C 233.638,690.478 184.971,603.645 180.5,491.5 Z"/></g>
<g><path style="opacity:0.557" fill="#171717" d="M 69.5,466.5 C 69.1746,474.352 69.508,482.018 70.5,489.5C 69.614,512 71.114,534.334 75,556.5C 102.815,701.798 182.981,807.132 315.5,872.5C 210.578,823.742 137.078,745.408 95,637.5C 74.3268,582.145 65.8268,525.145 69.5,466.5 Z"/></g>
<g><path style="opacity:0.08" fill="#181717" d="M 909.5,461.5 C 916.236,596.823 870.236,710.656 771.5,803C 676.745,885.304 566.745,920.138 441.5,907.5C 551.194,917.749 650.528,890.916 739.5,827C 849.393,741.717 906.06,629.217 909.5,489.5C 909.5,483.833 909.5,478.167 909.5,472.5C 909.5,468.833 909.5,465.167 909.5,461.5 Z"/></g>
<g><path style="opacity:0.039" fill="#090909" d="M 315.5,872.5 C 321.125,874.316 326.459,876.649 331.5,879.5C 325.64,878.234 320.307,875.9 315.5,872.5 Z"/></g>
<g><path style="opacity:0.061" fill="#050505" d="M 331.5,879.5 C 333.553,879.402 335.22,880.069 336.5,881.5C 334.447,881.598 332.78,880.931 331.5,879.5 Z"/></g>
<g><path style="opacity:0.063" fill="#0a0a0a" d="M 336.5,881.5 C 347.335,884.778 358.001,888.445 368.5,892.5C 357.339,890.003 346.673,886.336 336.5,881.5 Z"/></g>
<g><path style="opacity:0.118" fill="#121212" d="M 368.5,892.5 C 371.228,892.171 373.562,892.837 375.5,894.5C 372.848,894.59 370.515,893.924 368.5,892.5 Z"/></g>
<g><path style="opacity:0.115" fill="#151515" d="M 375.5,894.5 C 380.899,894.765 385.899,896.098 390.5,898.5C 385.191,897.924 380.191,896.591 375.5,894.5 Z"/></g>
<g><path style="opacity:0.08" fill="#151515" d="M 390.5,898.5 C 407.586,901.624 424.586,904.624 441.5,907.5C 424.059,906.317 407.059,903.317 390.5,898.5 Z"/></g>
</svg>
