<?xml version="1.0" encoding="UTF-8"?>
<!DOCTYPE svg PUBLIC "-//W3C//DTD SVG 1.1//EN" "http://www.w3.org/Graphics/SVG/1.1/DTD/svg11.dtd">
<svg xmlns="http://www.w3.org/2000/svg" version="1.1" width="1024px" height="1024px" style="shape-rendering:geometricPrecision; text-rendering:geometricPrecision; image-rendering:optimizeQuality; fill-rule:evenodd; clip-rule:evenodd" xmlns:xlink="http://www.w3.org/1999/xlink">
<g><path style="opacity:1" fill="#0152b4" d="M 479.5,-0.5 C 490.167,-0.5 500.833,-0.5 511.5,-0.5C 511.5,36.5 511.5,73.5 511.5,110.5C 511.5,154.833 511.5,199.167 511.5,243.5C 511.5,243.833 511.5,244.167 511.5,244.5C 511.5,288.833 511.5,333.167 511.5,377.5C 511.5,422.167 511.5,466.833 511.5,511.5C 340.833,511.5 170.167,511.5 -0.5,511.5C -0.5,500.833 -0.5,490.167 -0.5,479.5C 0.847833,469.012 1.84783,458.345 2.5,447.5C 11.4887,441.516 20.4887,435.516 29.5,429.5C 43.7536,439.078 57.7536,449.078 71.5,459.5C 71.8333,459.167 72.1667,458.833 72.5,458.5C 67.2655,442.297 61.9322,426.13 56.5,410C 70.0249,399.642 83.6916,389.475 97.5,379.5C 98.2891,379.217 98.9558,378.717 99.5,378C 81.5031,377.5 63.5031,377.333 45.5,377.5C 41.2398,362.385 36.5731,347.385 31.5,332.5C 36.0006,319.165 41.3339,306.165 47.5,293.5C 55.8703,298.777 64.037,304.444 72,310.5C 68.5612,297.013 64.3945,283.679 59.5,270.5C 62.9795,262.874 66.9795,255.54 71.5,248.5C 80.9354,242.245 90.2687,235.745 99.5,229C 94.8333,228.667 90.1667,228.333 85.5,228C 86.2524,227.329 86.5858,226.496 86.5,225.5C 113.161,185.283 145.161,149.616 182.5,118.5C 183.097,118.735 183.43,119.235 183.5,120C 178.627,133.62 173.96,147.286 169.5,161C 170.167,161.667 170.833,161.667 171.5,161C 185.244,150.711 199.078,140.545 213,130.5C 227.307,140.64 241.474,150.973 255.5,161.5C 251.091,145.085 246.091,128.585 240.5,112C 240.759,110.739 241.426,109.739 242.5,109C 256.113,99.7204 269.446,90.0537 282.5,80C 267.17,79.5001 251.837,79.3334 236.5,79.5C 310.512,32.0519 391.512,5.38524 479.5,-0.5 Z"/></g>
<g><path style="opacity:0.995" fill="#f0f0f0" d="M 511.5,-0.5 C 522.167,-0.5 532.833,-0.5 543.5,-0.5C 650.82,7.25798 746.487,44.258 830.5,110.5C 724.167,110.5 617.833,110.5 511.5,110.5C 511.5,73.5 511.5,36.5 511.5,-0.5 Z"/></g>
<g><path style="opacity:1" fill="#edeeef" d="M 396.5,29.5 C 402.329,45.6495 407.996,61.9828 413.5,78.5C 431.157,79.333 448.824,79.833 466.5,80C 452.026,90.3068 437.693,100.807 423.5,111.5C 428.762,126.785 433.928,142.119 439,157.5C 439.667,158.833 439.667,160.167 439,161.5C 425.099,150.8 410.933,140.467 396.5,130.5C 382.5,140.833 368.5,151.167 354.5,161.5C 358.504,144.965 363.504,128.465 369.5,112C 369.241,110.739 368.574,109.739 367.5,109C 353.887,99.7204 340.554,90.0537 327.5,80C 345.164,79.5001 362.83,79.3334 380.5,79.5C 385.233,62.6334 390.567,45.9668 396.5,29.5 Z"/></g>
<g><path style="opacity:0.993" fill="#edeeef" d="M 236.5,79.5 C 251.837,79.3334 267.17,79.5001 282.5,80C 269.446,90.0537 256.113,99.7204 242.5,109C 241.426,109.739 240.759,110.739 240.5,112C 246.091,128.585 251.091,145.085 255.5,161.5C 241.474,150.973 227.307,140.64 213,130.5C 199.078,140.545 185.244,150.711 171.5,161C 170.833,161.667 170.167,161.667 169.5,161C 173.96,147.286 178.627,133.62 183.5,120C 183.43,119.235 183.097,118.735 182.5,118.5C 199.377,103.958 217.377,90.958 236.5,79.5 Z"/></g>
<g><path style="opacity:1" fill="#d80227" d="M 511.5,110.5 C 617.833,110.5 724.167,110.5 830.5,110.5C 851.391,126.72 870.724,144.72 888.5,164.5C 889.08,166.749 890.413,168.415 892.5,169.5C 908.274,186.444 922.774,204.444 936,223.5C 939.42,228.737 942.587,234.071 945.5,239.5C 945.539,240.583 945.873,241.583 946.5,242.5C 801.502,243.5 656.502,243.833 511.5,243.5C 511.5,199.167 511.5,154.833 511.5,110.5 Z"/></g>
<g><path style="opacity:0.953" fill="#e87282" d="M 888.5,164.5 C 890.587,165.585 891.92,167.251 892.5,169.5C 890.413,168.415 889.08,166.749 888.5,164.5 Z"/></g>
<g><path style="opacity:1" fill="#ecedef" d="M 212.5,178.5 C 218.922,194.762 224.588,211.429 229.5,228.5C 247.17,228.333 264.836,228.5 282.5,229C 269.446,239.054 256.113,248.72 242.5,258C 241.426,258.739 240.759,259.739 240.5,261C 245.533,277.266 250.866,293.433 256.5,309.5C 255.998,310.521 255.332,310.688 254.5,310C 240.756,299.711 226.922,289.545 213,279.5C 199.178,290.077 185.178,300.411 171,310.5C 174.872,294.696 179.539,279.03 185,263.5C 185.667,262.167 185.667,260.833 185,259.5C 171.433,248.967 157.6,238.8 143.5,229C 161.176,228.833 178.843,228.333 196.5,227.5C 201.99,211.201 207.324,194.868 212.5,178.5 Z"/></g>
<g><path style="opacity:1" fill="#ecedef" d="M 396.5,178.5 C 402.329,194.649 407.996,210.983 413.5,227.5C 431.157,228.333 448.824,228.833 466.5,229C 452.026,239.307 437.693,249.807 423.5,260.5C 429.601,276.965 434.768,293.632 439,310.5C 424.822,300.411 410.822,290.077 397,279.5C 382.745,289.711 368.578,300.044 354.5,310.5C 358.504,293.965 363.504,277.465 369.5,261C 369.241,259.739 368.574,258.739 367.5,258C 353.887,248.72 340.554,239.054 327.5,229C 345.164,228.5 362.83,228.333 380.5,228.5C 385.233,211.633 390.567,194.967 396.5,178.5 Z"/></g>
<g><path style="opacity:0.932" fill="#e5e8ed" d="M 86.5,225.5 C 86.5858,226.496 86.2524,227.329 85.5,228C 90.1667,228.333 94.8333,228.667 99.5,229C 90.2687,235.745 80.9354,242.245 71.5,248.5C 76.1402,240.541 81.1402,232.874 86.5,225.5 Z"/></g>
<g><path style="opacity:1" fill="#db2142" d="M 945.5,239.5 C 947.25,240.659 948.25,242.326 948.5,244.5C 802.833,244.5 657.167,244.5 511.5,244.5C 511.5,244.167 511.5,243.833 511.5,243.5C 656.502,243.833 801.502,243.5 946.5,242.5C 945.873,241.583 945.539,240.583 945.5,239.5 Z"/></g>
<g><path style="opacity:0.999" fill="#f0f0f0" d="M 511.5,244.5 C 657.167,244.5 802.833,244.5 948.5,244.5C 974.404,285.847 993.737,330.18 1006.5,377.5C 841.5,377.5 676.5,377.5 511.5,377.5C 511.5,333.167 511.5,288.833 511.5,244.5 Z"/></g>
<g><path style="opacity:0.968" fill="#e9ebee" d="M 59.5,270.5 C 64.3945,283.679 68.5612,297.013 72,310.5C 64.037,304.444 55.8703,298.777 47.5,293.5C 51.2765,285.61 55.2765,277.943 59.5,270.5 Z"/></g>
<g><path style="opacity:1" fill="#ecedef" d="M 145.5,379.5 C 162.5,378.833 179.5,378.167 196.5,377.5C 201.897,360.809 207.397,344.142 213,327.5C 218.785,343.689 224.285,360.022 229.5,376.5C 247.157,377.333 264.824,377.833 282.5,378C 268.405,388.695 254.405,399.361 240.5,410C 246.106,426.811 251.273,443.644 256,460.5C 242.215,449.377 227.881,439.044 213,429.5C 198.841,439.249 184.841,449.249 171,459.5C 175.027,443.742 179.694,428.076 185,412.5C 185.667,411.167 185.667,409.833 185,408.5C 171.855,398.69 158.688,389.023 145.5,379.5 Z"/></g>
<g><path style="opacity:1" fill="#ecedef" d="M 412.5,376.5 C 429.643,378.162 446.976,379.162 464.5,379.5C 450.692,389.475 437.025,399.642 423.5,410C 429.688,426.228 434.855,442.728 439,459.5C 425.159,449.249 411.159,439.249 397,429.5C 382.119,439.044 367.785,449.377 354,460.5C 358.731,443.634 363.897,426.8 369.5,410C 355.595,399.361 341.595,388.695 327.5,378C 345.164,377.5 362.83,377.333 380.5,377.5C 385.509,360.641 391.009,343.974 397,327.5C 402.674,343.688 407.841,360.021 412.5,376.5 Z"/></g>
<g><path style="opacity:0.989" fill="#eeeeef" d="M 31.5,332.5 C 36.5731,347.385 41.2398,362.385 45.5,377.5C 62.8333,378.167 80.1667,378.833 97.5,379.5C 83.6916,389.475 70.0249,399.642 56.5,410C 61.9322,426.13 67.2655,442.297 72.5,458.5C 72.1667,458.833 71.8333,459.167 71.5,459.5C 57.7536,449.078 43.7536,439.078 29.5,429.5C 20.4887,435.516 11.4887,441.516 2.5,447.5C 7.64103,407.935 17.3077,369.602 31.5,332.5 Z"/></g>
<g><path style="opacity:1" fill="#aec4df" d="M 45.5,377.5 C 63.5031,377.333 81.5031,377.5 99.5,378C 98.9558,378.717 98.2891,379.217 97.5,379.5C 80.1667,378.833 62.8333,378.167 45.5,377.5 Z"/></g>
<g><path style="opacity:1" fill="#afc5df" d="M 196.5,377.5 C 179.5,378.167 162.5,378.833 145.5,379.5C 144.711,379.217 144.044,378.717 143.5,378C 161.164,377.5 178.83,377.333 196.5,377.5 Z"/></g>
<g><path style="opacity:1" fill="#b0c6e0" d="M 412.5,376.5 C 430.427,377.32 448.427,377.82 466.5,378C 465.956,378.717 465.289,379.217 464.5,379.5C 446.976,379.162 429.643,378.162 412.5,376.5 Z"/></g>
<g><path style="opacity:1" fill="#d80327" d="M 511.5,377.5 C 676.5,377.5 841.5,377.5 1006.5,377.5C 1011.32,395.598 1014.99,413.931 1017.5,432.5C 1017.36,437.414 1018.03,442.081 1019.5,446.5C 1021.08,457.57 1022.41,468.57 1023.5,479.5C 1023.5,490.167 1023.5,500.833 1023.5,511.5C 852.833,511.5 682.167,511.5 511.5,511.5C 511.5,466.833 511.5,422.167 511.5,377.5 Z"/></g>
<g><path style="opacity:1" fill="#e25565" d="M 1017.5,432.5 C 1018.8,436.943 1019.47,441.609 1019.5,446.5C 1018.03,442.081 1017.36,437.414 1017.5,432.5 Z"/></g>
<g><path style="opacity:0.999" fill="#f0f0f0" d="M -0.5,511.5 C 170.167,511.5 340.833,511.5 511.5,511.5C 682.167,511.5 852.833,511.5 1023.5,511.5C 1023.5,522.167 1023.5,532.833 1023.5,543.5C 1020.98,577.589 1015.32,611.256 1006.5,644.5C 676.5,644.5 346.5,644.5 16.5,644.5C 7.68163,611.255 2.01496,577.589 -0.5,543.5C -0.5,532.833 -0.5,522.167 -0.5,511.5 Z"/></g>
<g><path style="opacity:1" fill="#e58092" d="M 16.5,644.5 C 346.5,644.5 676.5,644.5 1006.5,644.5C 1006.67,645.492 1006.34,646.158 1005.5,646.5C 676.167,645.167 346.833,645.167 17.5,646.5C 16.6618,646.158 16.3284,645.492 16.5,644.5 Z"/></g>
<g><path style="opacity:1" fill="#d80027" d="M 1005.5,646.5 C 993.468,693.625 974.468,737.625 948.5,778.5C 657.167,778.5 365.833,778.5 74.5,778.5C 48.5322,737.625 29.5322,693.625 17.5,646.5C 346.833,645.167 676.167,645.167 1005.5,646.5 Z"/></g>
<g><path style="opacity:0.999" fill="#efefef" d="M 74.5,778.5 C 365.833,778.5 657.167,778.5 948.5,778.5C 917.459,830.224 878.126,874.891 830.5,912.5C 617.833,911.167 405.167,911.167 192.5,912.5C 144.874,874.891 105.541,830.224 74.5,778.5 Z"/></g>
<g><path style="opacity:1" fill="#e89fac" d="M 830.5,912.5 C 830.158,913.338 829.492,913.672 828.5,913.5C 616.833,912.167 405.167,912.167 193.5,913.5C 192.833,913.5 192.5,913.167 192.5,912.5C 405.167,911.167 617.833,911.167 830.5,912.5 Z"/></g>
<g><path style="opacity:1" fill="#d80327" d="M 828.5,913.5 C 758.745,969.19 679.412,1004.02 590.5,1018C 574.729,1020.24 559.062,1022.07 543.5,1023.5C 522.167,1023.5 500.833,1023.5 479.5,1023.5C 372.763,1015.71 277.43,979.045 193.5,913.5C 405.167,912.167 616.833,912.167 828.5,913.5 Z"/></g>
</svg>
