<svg id="role_diplomats" xmlns="http://www.w3.org/2000/svg" viewBox="0 0 130 130"><defs><style>.cls-1{fill:#c2e1d4;}.cls-2{fill:#f4f9f6;}.cls-3{fill:#298a62;}.cls-4{fill:#2c9268;}.cls-5{fill:#45ad82;}.cls-6{fill:#227250;}.cls-7{fill:#257b56;}.cls-8{fill:#1e6345;}.cls-9{fill:#99c26b;}.cls-10{fill:#709c51;}.cls-11{fill:#bed78d;}.cls-12{fill:#70bf9c;}.cls-13{fill:#a1cb7f;}.cls-14{fill:#5ab58f;}.cls-15{fill:#31a273;}.cls-16{fill:#27825d;}.cls-17{fill:#3da87c;}.cls-18{fill:#e3e57e;}.cls-19{fill:#d7dc59;}.cls-20{fill:#b6c542;}</style></defs><polygon class="cls-1" points="27.72 19.21 66.12 3.7 102.31 20.36 88.88 112.14 65 121.57 42.46 111.63 27.72 19.21"/><circle class="cls-2" cx="49.24" cy="29.89" r="7.73"/><polygon class="cls-3" points="75.74 70.56 78.81 75.54 77.75 77.06 73.9 69.89 75.74 70.56"/><polygon class="cls-4" points="76.38 77.99 81.95 63.75 83.36 64.74 78.81 79.45 76.38 79.45 76.38 77.99"/><polygon class="cls-5" points="55.8 75.15 50 65.82 48.24 66.21 52.41 76.56 55.03 76.82 55.8 75.15"/><polygon class="cls-4" points="62.63 81.24 52.41 76.56 55.8 75.15 64.72 77.76 62.63 81.24"/><polygon class="cls-6" points="59.33 86.25 61.37 100.27 69 98.17 64.72 88.49 59.33 86.25"/><polygon class="cls-3" points="66.83 84.43 69 98.17 59.33 86.25 64.26 82.12 66.83 84.43"/><polygon class="cls-5" points="59.33 86.25 62.2 73.25 69.22 70.66 66.32 80.39 59.33 86.25"/><polygon class="cls-3" points="67.08 76.38 62.2 73.25 63.49 67.38 69.23 70.59 67.08 76.38"/><polygon class="cls-7" points="69.23 70.59 66.83 84.43 59.33 86.25 69.23 70.59"/><polygon class="cls-6" points="56.16 70.66 40.62 63.55 49.24 57.83 59.32 63.48 56.16 70.66"/><polygon class="cls-8" points="76.21 71.32 56.16 70.66 56.25 66.21 80.82 61.24 76.21 71.32"/><polygon class="cls-6" points="90.25 60.09 76.21 71.32 76.52 64.85 85.58 57.25 90.25 60.09"/><polygon class="cls-9" points="49.04 61.53 56.25 66.21 61.37 55.29 46.9 51.59 49.04 61.53"/><polygon class="cls-4" points="36.93 51.56 40.62 63.55 49.04 61.53 49.24 54.32 45.53 51.98 36.93 51.56"/><polygon class="cls-10" points="76.52 64.85 56.25 66.21 58.6 57.07 76.91 56.27 76.52 64.85"/><polygon class="cls-9" points="93.13 48.14 88.88 58.02 76.52 64.85 72.12 59.05 83.54 51.59 93.13 48.14"/><polygon class="cls-3" points="93.13 48.14 90.25 60.09 76.52 64.85 87.99 52.44 87.19 47.42 93.13 48.14"/><polygon class="cls-11" points="72.12 59.05 87.99 52.44 87.58 41.44 70.87 50.43 72.12 59.05"/><polygon class="cls-9" points="58.6 57.07 72.12 59.05 75.16 52.18 68.49 46.72 57.81 45.94 58.6 57.07"/><polygon class="cls-12" points="40.27 49.06 36.93 51.56 49.24 54.32 56.16 53.96 59.17 49.65 52.16 45.75 40.27 49.06"/><polygon class="cls-10" points="57.17 49.58 40.27 49.06 41.64 38.15 63.27 41.66 57.17 49.58"/><polygon class="cls-6" points="72.26 48.74 66.32 48.93 60.34 51.01 57.17 49.58 56.25 42.95 71.84 40.68 72.26 48.74"/><polygon class="cls-3" points="87.99 34.95 87.58 41.44 87.19 47.42 83.34 49.05 73.73 49.65 70.2 43.39 75.35 38.54 87.99 34.95"/><polygon class="cls-13" points="56.25 42.95 41.64 38.15 47.09 33.86 60.34 35.03 56.25 42.95"/><polygon class="cls-14" points="81.95 33.61 87.99 34.95 70.2 43.39 56.25 42.95 57.17 38.08 69.56 32.41 81.95 33.61"/><polygon class="cls-10" points="57.17 38.08 57.62 29.32 65.12 25.68 77.39 26.73 76.91 31.88 72.26 33.86 66.78 37.9 57.17 38.08"/><polygon class="cls-5" points="59.32 31.45 57.81 28.21 48.12 28.99 47.09 33.86 57.17 38.08 59.32 31.45"/><polygon class="cls-8" points="70.2 43.39 66.32 48.93 75.16 52.18 83.34 49.05 70.2 43.39"/><polygon class="cls-11" points="57.17 49.58 49.24 54.32 58.6 57.07 66.32 48.93 57.17 49.58"/><polygon class="cls-11" points="70.2 43.39 72.26 33.86 57.17 38.08 70.2 43.39"/><polygon class="cls-3" points="72.26 33.86 68.49 27.9 70.87 26.17 77.39 26.73 81.95 33.61 72.26 33.86"/><polygon class="cls-12" points="48.12 28.99 59.32 31.45 63.9 28.21 68.49 27.9 77.39 26.73 63.07 22.75 48.12 28.99"/><polygon class="cls-11" points="63.07 22.75 68.49 27.9 59.32 31.45 63.07 22.75"/><polygon class="cls-14" points="83.34 49.05 87.99 52.44 93.13 48.14 87.58 41.44 83.34 49.05"/><polygon class="cls-5" points="66.83 84.43 78.81 79.45 76.38 77.99 65 82.12 66.83 84.43"/><polygon class="cls-4" points="83.08 85.97 82.46 92.46 85.04 86.9 84.72 85.11 83.08 85.97"/><polygon class="cls-5" points="60.63 95.18 67.92 91.3 74.3 92.44 74.83 87.11 79 86.25 78.27 93.5 85.04 86.9 92.4 92.46 90.37 108.01 65 121.57 42 110.23 38.78 93.84 43.57 89.59 48.93 93.26 56.05 92.28 60.63 95.18"/><polygon class="cls-15" points="54.89 99.89 48.9 102 56.4 100.8 54.89 99.89"/><polygon class="cls-15" points="85.32 89.37 93.04 95.18 84.72 90.58 85.32 89.37"/><polygon class="cls-16" points="76.91 95.86 85.74 92.97 92.31 98.11 91.53 101.94 83.96 99.45 80.18 99.25 76.91 95.86"/><polygon class="cls-16" points="69.22 109.5 76.91 115.84 67.56 119.81 60.63 117.17 63.25 111.08 69.22 109.5"/><polygon class="cls-16" points="80.44 107.38 87.37 111.81 76.91 115.84 80.44 107.38"/><polygon class="cls-16" points="59.76 103.72 65.72 101.94 72.92 105.82 63.66 109.41 59.76 103.72"/><polygon class="cls-16" points="59.76 103.72 57.76 107.66 54.4 108.45 52.02 115.03 46.9 112.35 47.47 110.23 48.9 105.5 50.41 104.81 55.69 102.83 59.76 103.72"/><polygon class="cls-16" points="53.84 99.23 50.02 97.81 47.43 99.25 39.39 105.12 37.15 98.17 42.37 94.66 47.17 95.86 56.4 96.95 53.84 99.23"/><polygon class="cls-16" points="62.99 98.65 66.34 99.88 70.82 97.81 69.23 94.66 63.66 95.94 62.99 98.65"/><polygon class="cls-16" points="81.33 101.27 90.37 108.01 88.6 110.23 80.18 101.94 81.33 101.27"/><polygon class="cls-12" points="70.82 97.81 65.72 101.94 62.99 98.65 70.82 97.81"/><polygon class="cls-12" points="85.04 86.9 85.74 92.97 78.27 96.74 77.39 93.84 78.81 92.46 85.04 86.9"/><polygon class="cls-12" points="80.18 84.58 77.7 91.15 74.83 87.11 80.18 84.58"/><polygon class="cls-12" points="72.92 105.82 63.32 108.92 63.25 111.08 69.22 109.5 72.92 105.82"/><polygon class="cls-12" points="59.76 103.72 54.4 108.45 57.14 110.6 62.91 108.32 59.76 103.72"/><polygon class="cls-15" points="72.92 105.82 76.91 115.84 74.3 104.12 72.92 105.82"/><polygon class="cls-15" points="55.71 95.4 49.81 92.46 52.41 91.35 55.71 95.4"/><polygon class="cls-15" points="74.3 92.44 75.23 95.46 70.82 97.81 71.27 94.84 74.3 92.44"/><polygon class="cls-16" points="80.18 84.58 75.23 95.46 76.8 95.28 78.25 93.84 78.81 92.46 80.18 84.58"/><polygon class="cls-12" points="43.57 89.59 42.37 94.66 38.03 99.24 37.7 93.26 43.57 89.59"/><polygon class="cls-6" points="66.67 4.18 27.72 19.21 30.03 24.42 65 10.16 66.67 4.18"/><polygon class="cls-8" points="65 5.96 102.31 20.36 100 24.42 65 10.16 65 5.96"/><polygon class="cls-6" points="38.6 117.43 65.01 129.5 68.68 123.03 57.06 118.39 39.26 109.73 38.6 117.43"/><polygon class="cls-3" points="24.5 17.16 22.84 23.7 38.6 117.43 39.71 112.14 39.71 100.4 28.34 21.53 24.5 17.16"/><polygon class="cls-17" points="24.5 17.16 39.71 112.14 42.46 111.63 42.9 109.73 31.37 21.53 30.12 18.72 24.5 17.16"/><polygon class="cls-12" points="42.9 109.73 65.02 118.07 66.91 121.17 65 125.12 39.71 112.14 42.9 109.73"/><polygon class="cls-12" points="65 5.96 31.37 21.53 24.5 17.16 65 0.5 66.12 3.7 65 5.96"/><polygon class="cls-8" points="91.42 117.43 65.01 129.5 65.02 125.12 72.95 118.39 90.76 109.73 91.42 117.43"/><polygon class="cls-3" points="105.52 17.16 107.18 23.7 91.42 117.43 90.31 112.14 90.31 100.4 101.68 21.53 105.52 17.16"/><polygon class="cls-12" points="105.52 17.16 90.31 112.14 87.56 111.63 87.12 109.73 98.65 21.53 99.9 18.72 105.52 17.16"/><polygon class="cls-15" points="87.12 109.73 65.02 118.07 65.02 125.12 90.31 112.14 87.12 109.73"/><polygon class="cls-15" points="65 5.96 98.65 21.53 105.52 17.16 65 0.5 65 5.96"/><polygon class="cls-11" points="49.81 82.12 55.17 86.25 56.05 92.28 50.85 93.05 47.17 95.86 43.57 89.59 49.81 82.12"/><polygon class="cls-18" points="40.27 99.89 40.54 103.47 39.39 105.12 42.9 109.73 44.49 108.84 47.17 111.35 50.41 104.81 47.43 99.25 40.27 99.89"/><polygon class="cls-18" points="57.88 108.18 64.98 108.38 67.66 112.03 65.87 114.13 65.02 118.07 59.05 119.72 57.85 116.75 55.69 115.4 57.88 108.18"/><polygon class="cls-19" points="70.82 97.81 78.25 93.84 83.96 99.5 80.44 107.38 76.91 105.76 72.92 105.82 70.82 97.81"/><polygon class="cls-11" points="55.69 102.83 59.76 103.72 61.11 100.36 62.99 98.65 60.63 95.18 55.71 95.4 53.84 99.23 55.69 102.83"/><polygon class="cls-19" points="63.66 95.94 70.82 97.81 72.13 94.16 74.3 92.44 70.57 87.11 64.72 89.99 65.07 92.91 63.66 95.94"/><polygon class="cls-11" points="78.81 79.45 83.87 75.31 90.37 78.2 89.18 81.49 89.72 84.73 85.04 86.9 82.99 84.85 80.18 84.58 78.81 79.45"/><polygon class="cls-9" points="83.73 82.58 80.18 84.58 85.04 86.9 83.73 82.58"/><polygon class="cls-9" points="85.87 82.45 89.72 84.73 90.37 78.2 85.87 82.45"/><polygon class="cls-9" points="62.99 98.65 59.24 99.21 59.76 103.72 62.99 98.65"/><polygon class="cls-9" points="57.03 99.08 55.69 102.83 58.2 100.38 58.38 99.24 57.03 99.08"/><polygon class="cls-19" points="62.73 113.26 67.66 112.03 65.02 118.07 62.73 113.26"/><polygon class="cls-19" points="61.04 115.53 59.05 119.72 55.69 115.4 61.04 115.53"/><polygon class="cls-19" points="43.97 106.49 47.17 111.35 42.9 109.73 43.97 106.49"/><polygon class="cls-19" points="46.25 105.32 50.41 104.81 45.34 103.3 44.9 104.57 46.25 105.32"/><polygon class="cls-19" points="40.27 99.89 43.52 104.28 39.39 105.12 40.27 99.89"/><polygon class="cls-9" points="51.84 89.79 56.05 92.28 47.17 95.86 48.98 91.35 49.64 89.68 51.84 89.79"/><polygon class="cls-20" points="70.22 92.46 74.3 92.44 70.82 97.81 70.22 92.46"/><polygon class="cls-20" points="63.66 95.94 67.56 93.17 64.72 89.99 63.66 95.94"/><polygon class="cls-20" points="77.56 102.59 80.44 107.38 72.92 105.82 77.56 102.59"/><polygon class="cls-9" points="50.34 87.39 50.32 88.79 51.84 89.79 55.17 86.25 50.34 87.39"/><polygon class="cls-20" points="78.6 99.99 77.33 100.76 77.56 102.59 83.96 99.5 78.6 99.99"/><polygon class="cls-4" points="48.2 89.4 50.34 87.39 51.84 89.79 48.98 91.35 48.2 89.4"/><polygon class="cls-4" points="67.56 93.17 68.53 91.22 70.22 92.46 68.98 94.21 67.56 93.17"/><polygon class="cls-4" points="83.73 82.58 83.08 80.76 85.09 79.72 85.87 82.45 83.73 82.58"/><polygon class="cls-4" points="75.55 101.16 76.52 99.02 78.6 99.99 77.56 102.59 75.55 101.16"/><polygon class="cls-4" points="58.2 100.38 57.03 99.08 57.94 98.11 59.24 99.21 58.2 100.38"/><polygon class="cls-4" points="43.52 104.28 45.34 103.3 46.25 105.32 43.97 106.49 43.52 104.28"/><polygon class="cls-4" points="59.55 113.33 61.37 111.96 62.73 113.26 61.04 115.53 59.55 113.33"/><polygon class="cls-16" points="105.28 99.27 100.45 95.91 100.47 91.5 101.06 91.02 100.48 89.62 100.48 88.35 101.06 87.17 100.5 85.21 100.52 80.33 109.24 84.34 105.28 99.27"/><polygon class="cls-6" points="114.64 81.23 111.78 90.25 110.99 90.92 111.38 91.5 110.37 94.67 109.64 95.17 110.09 95.56 109.48 97.47 105.28 99.27 106.1 86.51 114.64 81.23"/><polygon class="cls-18" points="92.93 68.62 106.51 79.29 124.09 69.88 116.69 61.07 112.51 57.31 114.36 53.24 110.15 51.25 109.17 46.53 102.42 54.87 103.5 57.46 103.16 59.76 98.5 61 92.93 68.62"/><polygon class="cls-18" points="108.72 44.2 111.61 41.61 108.83 35.96 106.06 40.84 108.72 44.2"/><polygon class="cls-19" points="114.36 53.24 109.24 61.99 116.69 61.07 114.36 53.24"/><polygon class="cls-19" points="102.42 54.87 106.81 58.86 103.16 59.76 102.42 54.87"/><polygon class="cls-19" points="124.09 69.88 112.51 73.94 102.21 73.62 92.93 68.62 96.33 74.51 106.92 83.13 119.5 76.03 124.09 69.88"/><polygon class="cls-15" points="102.21 73.62 107.3 79.63 112.51 73.94 108.9 68.97 109.24 61.99 102.21 73.62"/><polygon class="cls-9" points="96.33 74.51 107.3 79.63 109.24 82.69 106.1 86.51 97.63 80.46 96.33 74.51"/><polygon class="cls-10" points="107.3 79.63 119.5 76.03 118.48 81.27 106.1 86.51 107.3 79.63"/><polygon class="cls-12" points="100.5 85.21 105.91 89.4 106.4 90.45 105.78 91.5 100.48 88.35 100.5 85.21"/><polygon class="cls-15" points="105.91 89.4 111.78 90.25 111.38 91.5 105.78 91.5 105.91 89.4"/><polygon class="cls-12" points="100.47 89.62 105.58 94.67 106.1 95.52 105.47 96.37 100.48 91.5 100.47 89.62"/><polygon class="cls-15" points="105.58 94.67 110.37 94.67 110.09 95.56 105.47 96.37 105.58 94.67"/><polygon class="cls-6" points="16.35 65.06 13.76 74.9 30.33 95.35 47.32 71.52 36.44 62.63 26.88 67.94 16.35 65.06"/><polygon class="cls-16" points="30.33 95.35 28.48 76.37 16.14 74.2 7.26 76.83 30.33 95.35"/><polygon class="cls-10" points="36.33 59.5 31.44 65.95 28.48 76.37 47.32 71.52 36.33 59.5"/><polygon class="cls-9" points="28.48 76.37 21.53 67.36 14.57 63.02 7.26 76.83 28.48 76.37"/><polygon class="cls-10" points="26.59 66.25 29.64 70.57 28.48 76.37 14.57 63.02 26.59 66.25"/><polygon class="cls-9" points="36.33 59.5 28.48 76.37 27.43 70.81 26.59 66.25 36.33 59.5"/><polygon class="cls-19" points="21.24 69.42 17.87 76.6 29.34 85.16 37.06 74.16 32.17 68.4 27.43 70.81 21.24 69.42"/><polygon class="cls-18" points="27.43 70.81 29.34 85.16 37.06 74.16 32.17 68.4 27.43 70.81"/></svg>